<svg width="87" height="50" viewBox="0 0 87 50" fill="none" xmlns="http://www.w3.org/2000/svg">
<path d="M46.4439 5.1637C47.9592 6.03856 49.2175 7.29689 50.0924 8.8122C50.9672 10.3275 51.4278 12.0464 51.4278 13.7961C51.4278 15.5459 50.9672 17.2647 50.0923 18.78C49.2174 20.2953 47.9591 21.5536 46.4438 22.4285C44.9285 23.3033 43.2095 23.7639 41.4598 23.7639C39.7101 23.7638 37.9912 23.3032 36.4759 22.4283C34.9606 21.5534 33.7023 20.2951 32.8275 18.7798C31.9527 17.2644 31.4921 15.5455 31.4922 13.7958L31.4972 13.4729C31.553 11.7514 32.0539 10.0738 32.9511 8.60358C33.8483 7.13336 35.1111 5.92071 36.6165 5.08384C38.1219 4.24698 39.8184 3.81446 41.5407 3.82845C43.263 3.84245 44.9523 4.30248 46.4439 5.1637ZM41.46 7.81514C41.1956 7.81514 40.9421 7.92015 40.7552 8.10709C40.5682 8.29402 40.4632 8.54755 40.4632 8.81191C39.6701 8.81191 38.9095 9.12697 38.3487 9.68776C37.7879 10.2486 37.4729 11.0092 37.4729 11.8023C37.4729 12.5953 37.7879 13.3559 38.3487 13.9167C38.9095 14.4775 39.6701 14.7926 40.4632 14.7926V16.7861C40.2979 16.7953 40.1328 16.764 39.9824 16.6948C39.832 16.6257 39.7007 16.5208 39.6 16.3894L39.5322 16.2888C39.3958 16.0688 39.1793 15.9105 38.9283 15.8474C38.6773 15.7842 38.4116 15.8212 38.1874 15.9504C37.9632 16.0796 37.798 16.2909 37.7268 16.5397C37.6556 16.7885 37.6839 17.0553 37.8058 17.2835C38.0602 17.7248 38.4231 18.0937 38.8601 18.3554C39.2971 18.6171 39.7936 18.7628 40.3027 18.7787H40.4632C40.463 19.023 40.5525 19.2589 40.7148 19.4416C40.877 19.6242 41.1007 19.7409 41.3434 19.7695L41.46 19.7765C41.7243 19.7765 41.9779 19.6715 42.1648 19.4845C42.3517 19.2976 42.4568 19.0441 42.4568 18.7797L42.6322 18.7747C43.4093 18.7298 44.1382 18.3837 44.6642 17.8098C45.1901 17.236 45.4715 16.4797 45.4487 15.7016C45.4259 14.9236 45.1005 14.1851 44.5418 13.6431C43.9832 13.1011 43.2352 12.7983 42.4568 12.799V10.8055C42.8136 10.7935 43.1256 10.945 43.32 11.2022L43.3878 11.3029C43.5241 11.5228 43.7407 11.6811 43.9917 11.7442C44.2426 11.8074 44.5083 11.7704 44.7325 11.6412C44.9568 11.512 45.122 11.3007 45.1932 11.0519C45.2644 10.8031 45.2361 10.5364 45.1142 10.3081C44.8599 9.86666 44.497 9.49752 44.06 9.23567C43.6231 8.97383 43.1264 8.82796 42.6172 8.81191H42.4568C42.4568 8.54755 42.3517 8.29402 42.1648 8.10709C41.9779 7.92015 41.7243 7.81514 41.46 7.81514ZM42.4568 14.7926C42.7211 14.7926 42.9747 14.8976 43.1616 15.0845C43.3485 15.2715 43.4535 15.525 43.4535 15.7894C43.4535 16.0537 43.3485 16.3073 43.1616 16.4942C42.9747 16.6811 42.7211 16.7861 42.4568 16.7861V14.7926ZM40.4632 10.8055V12.799C40.1988 12.799 39.9453 12.694 39.7584 12.5071C39.5714 12.3201 39.4664 12.0666 39.4664 11.8023C39.4664 11.5379 39.5714 11.2844 39.7584 11.0974C39.9453 10.9105 40.1988 10.8055 40.4632 10.8055Z" fill="#EEB341"/>
<path d="M52.8553 8.19321L53.8505 4.30133C53.8593 4.2666 53.8598 4.23026 53.8518 4.19533C53.8438 4.16039 53.8277 4.12785 53.8046 4.10038L53.8043 4.09997C53.7811 4.07249 53.7516 4.05095 53.7184 4.03714C53.6852 4.02332 53.6492 4.01763 53.6133 4.02054L49.6183 4.34678C49.5769 4.35012 49.5374 4.36481 49.5039 4.38921C49.4704 4.41361 49.4442 4.44678 49.4284 4.48507C49.4124 4.5233 49.4073 4.56519 49.4136 4.60614C49.4199 4.6471 49.4374 4.68551 49.4641 4.71717L50.1677 5.55349L47.9223 7.44251C47.8996 7.46158 47.8809 7.48494 47.8672 7.51124C47.8536 7.53755 47.8453 7.56629 47.8427 7.59582C47.8402 7.62535 47.8435 7.6551 47.8525 7.68335C47.8614 7.7116 47.8759 7.73781 47.895 7.76047L49.1969 9.30778C49.2159 9.33048 49.2393 9.34919 49.2656 9.36285C49.2919 9.37651 49.3207 9.38485 49.3502 9.38739C49.3798 9.38993 49.4095 9.38662 49.4378 9.37765C49.4661 9.36868 49.4923 9.35423 49.515 9.33513L51.76 7.44627L52.4639 8.28287C52.5182 8.3474 52.6044 8.37603 52.6869 8.35748C52.7274 8.34828 52.7646 8.32807 52.7943 8.29908C52.824 8.27009 52.8451 8.23345 52.8553 8.19321Z" fill="#EEB341"/>
<path d="M3.22 41.0178V38.4178H5.68C6.49333 38.4178 7.1 38.2578 7.5 37.9378C7.9 37.6045 8.1 37.0578 8.1 36.2978C8.1 35.5778 7.91333 35.0445 7.54 34.6978C7.18 34.3378 6.62667 34.1578 5.88 34.1578H3.22V31.5578H6.06C6.82 31.5578 7.52667 31.6511 8.18 31.8378C8.83333 32.0111 9.4 32.2911 9.88 32.6778C10.3733 33.0645 10.7533 33.5511 11.02 34.1378C11.3 34.7245 11.44 35.4311 11.44 36.2578C11.44 37.3111 11.2 38.1911 10.72 38.8978C10.2533 39.6045 9.57333 40.1378 8.68 40.4978C7.78667 40.8445 6.69333 41.0178 5.4 41.0178H3.22ZM0.8 44.7578V31.5578H4.04V44.7578H0.8ZM17.322 45.0378C16.322 45.0378 15.482 44.8978 14.802 44.6178C14.1354 44.3245 13.5954 43.9311 13.182 43.4378C12.7687 42.9311 12.4687 42.3578 12.282 41.7178C12.1087 41.0778 12.022 40.4045 12.022 39.6978C12.022 38.9378 12.1154 38.2111 12.302 37.5178C12.502 36.8245 12.802 36.2111 13.202 35.6778C13.6154 35.1311 14.142 34.7045 14.782 34.3978C15.4354 34.0778 16.2154 33.9178 17.122 33.9178C18.0287 33.9178 18.802 34.0778 19.442 34.3978C20.0954 34.7045 20.6154 35.1378 21.002 35.6978C21.3887 36.2578 21.6354 36.9045 21.742 37.6378C21.862 38.3711 21.8487 39.1645 21.702 40.0178L14.042 40.1378V38.3778L19.222 38.2778L18.802 39.2978C18.882 38.6845 18.8687 38.1711 18.762 37.7578C18.6687 37.3311 18.4887 37.0111 18.222 36.7978C17.9554 36.5711 17.5887 36.4578 17.122 36.4578C16.6287 36.4578 16.2354 36.5845 15.942 36.8378C15.6487 37.0911 15.442 37.4511 15.322 37.9178C15.202 38.3711 15.142 38.9111 15.142 39.5378C15.142 40.6178 15.322 41.4045 15.682 41.8978C16.042 42.3911 16.5954 42.6378 17.342 42.6378C17.662 42.6378 17.9287 42.5978 18.142 42.5178C18.3554 42.4378 18.5287 42.3245 18.662 42.1778C18.7954 42.0178 18.8887 41.8311 18.942 41.6178C18.9954 41.3911 19.0154 41.1378 19.002 40.8578L21.962 41.0178C22.002 41.4578 21.9554 41.9111 21.822 42.3778C21.702 42.8445 21.4687 43.2778 21.122 43.6778C20.7754 44.0778 20.2887 44.4045 19.662 44.6578C19.0487 44.9111 18.2687 45.0378 17.322 45.0378ZM23.0833 44.7578V38.7778V34.1978H25.8233V38.4978H25.9833C26.0633 37.4578 26.2366 36.6045 26.5033 35.9378C26.7699 35.2578 27.1499 34.7511 27.6433 34.4178C28.1366 34.0845 28.7633 33.9178 29.5233 33.9178C30.6699 33.9178 31.5299 34.2978 32.1033 35.0578C32.6899 35.8178 32.9833 36.9511 32.9833 38.4578V44.7578H29.7433V38.8778C29.7433 38.1578 29.6299 37.6178 29.4033 37.2578C29.1899 36.8978 28.8433 36.7178 28.3633 36.7178C27.9633 36.7178 27.6099 36.8578 27.3033 37.1378C26.9966 37.4178 26.7566 37.8711 26.5833 38.4978C26.4099 39.1245 26.3233 39.9645 26.3233 41.0178V44.7578H23.0833ZM34.3138 44.7578V34.1978H37.5538V44.7578H34.3138ZM35.9138 33.4378C35.3004 33.4378 34.8271 33.3111 34.4938 33.0578C34.1738 32.7911 34.0138 32.4111 34.0138 31.9178C34.0138 31.4111 34.1738 31.0311 34.4938 30.7778C34.8271 30.5111 35.3004 30.3778 35.9138 30.3778C36.5404 30.3778 37.0138 30.5111 37.3338 30.7778C37.6671 31.0445 37.8338 31.4245 37.8338 31.9178C37.8338 32.3978 37.6671 32.7711 37.3338 33.0378C37.0138 33.3045 36.5404 33.4378 35.9138 33.4378ZM40.9413 44.7578L38.4413 34.1978H41.8813L43.1013 42.0378H43.2013L44.5613 34.1978H48.1413L49.4613 42.0378H49.5613L50.8813 34.1978H54.1013L51.6413 44.7578H47.4213L46.3413 37.6378H46.2413L45.1213 44.7578H40.9413ZM58.7578 47.8778C58.3578 47.8778 57.9178 47.8445 57.4378 47.7778C56.9578 47.7111 56.4778 47.6045 55.9978 47.4578C55.5178 47.3111 55.0711 47.1245 54.6578 46.8978L55.3978 43.6378C55.8778 44.0911 56.4111 44.4111 56.9978 44.5978C57.5978 44.7845 58.1311 44.8778 58.5978 44.8778C59.2511 44.8778 59.7978 44.7511 60.2378 44.4978C60.6911 44.2311 61.0311 43.8511 61.2578 43.3578C61.4845 42.8511 61.5978 42.2378 61.5978 41.5178V39.6778H61.4178C61.3911 40.6111 61.2378 41.3778 60.9578 41.9778C60.6911 42.5645 60.3245 42.9978 59.8578 43.2778C59.3911 43.5578 58.8511 43.6978 58.2378 43.6978C57.4778 43.6978 56.8445 43.5045 56.3378 43.1178C55.8445 42.7311 55.4711 42.1511 55.2178 41.3778C54.9645 40.6045 54.8378 39.6378 54.8378 38.4778V34.1978H58.0578V37.6378C58.0578 38.7711 58.1778 39.5978 58.4178 40.1178C58.6578 40.6378 59.0378 40.8978 59.5578 40.8978C59.8245 40.8978 60.0578 40.8311 60.2578 40.6978C60.4711 40.5511 60.6445 40.3378 60.7778 40.0578C60.9111 39.7645 61.0111 39.4045 61.0778 38.9778C61.1445 38.5378 61.1778 38.0311 61.1778 37.4578V34.1978H64.3978V41.6378C64.3978 42.3578 64.3245 43.0378 64.1778 43.6778C64.0311 44.3045 63.8111 44.8711 63.5178 45.3778C63.2245 45.8978 62.8511 46.3445 62.3978 46.7178C61.9578 47.0911 61.4311 47.3778 60.8178 47.5778C60.2178 47.7778 59.5311 47.8778 58.7578 47.8778ZM70.3791 45.0378C69.6724 45.0378 69.0124 44.9645 68.3991 44.8178C67.7991 44.6845 67.2724 44.4645 66.8191 44.1578C66.3791 43.8511 66.0391 43.4445 65.7991 42.9378C65.5724 42.4178 65.4791 41.7911 65.5191 41.0578L68.3391 40.8178C68.3657 41.2578 68.4657 41.6245 68.6391 41.9178C68.8124 42.1978 69.0524 42.4045 69.3591 42.5378C69.6657 42.6711 70.0391 42.7378 70.4791 42.7378C70.8924 42.7378 71.2457 42.6711 71.5391 42.5378C71.8457 42.3911 71.9991 42.1511 71.9991 41.8178C71.9991 41.6445 71.9457 41.5045 71.8391 41.3978C71.7324 41.2778 71.5324 41.1711 71.2391 41.0778C70.9591 40.9711 70.5457 40.8511 69.9991 40.7178C69.3191 40.5445 68.7057 40.3711 68.1591 40.1978C67.6124 40.0245 67.1457 39.8178 66.7591 39.5778C66.3724 39.3378 66.0791 39.0445 65.8791 38.6978C65.6791 38.3378 65.5791 37.8978 65.5791 37.3778C65.5791 36.6445 65.7724 36.0245 66.1591 35.5178C66.5591 34.9978 67.1057 34.6045 67.7991 34.3378C68.4924 34.0578 69.2924 33.9178 70.1991 33.9178C71.0124 33.9178 71.7724 34.0445 72.4791 34.2978C73.1857 34.5511 73.7391 34.9645 74.1391 35.5378C74.5524 36.1111 74.7057 36.8711 74.5991 37.8178L71.8391 38.0778C71.8791 37.6911 71.8257 37.3645 71.6791 37.0978C71.5324 36.8178 71.3191 36.6111 71.0391 36.4778C70.7591 36.3311 70.4191 36.2578 70.0191 36.2578C69.5657 36.2578 69.2124 36.3445 68.9591 36.5178C68.7191 36.6778 68.5991 36.8845 68.5991 37.1378C68.5991 37.3378 68.6724 37.5111 68.8191 37.6578C68.9791 37.7911 69.2191 37.9111 69.5391 38.0178C69.8724 38.1111 70.2991 38.2178 70.8191 38.3378C71.2724 38.4311 71.7457 38.5511 72.2391 38.6978C72.7324 38.8445 73.1924 39.0445 73.6191 39.2978C74.0457 39.5378 74.3924 39.8578 74.6591 40.2578C74.9257 40.6578 75.0591 41.1645 75.0591 41.7778C75.0591 42.4311 74.8791 43.0045 74.5191 43.4978C74.1591 43.9911 73.6324 44.3711 72.9391 44.6378C72.2457 44.9045 71.3924 45.0378 70.3791 45.0378ZM81.1111 45.0378C80.1111 45.0378 79.2711 44.8978 78.5911 44.6178C77.9244 44.3245 77.3844 43.9311 76.9711 43.4378C76.5578 42.9311 76.2578 42.3578 76.0711 41.7178C75.8978 41.0778 75.8111 40.4045 75.8111 39.6978C75.8111 38.9378 75.9044 38.2111 76.0911 37.5178C76.2911 36.8245 76.5911 36.2111 76.9911 35.6778C77.4044 35.1311 77.9311 34.7045 78.5711 34.3978C79.2244 34.0778 80.0044 33.9178 80.9111 33.9178C81.8178 33.9178 82.5911 34.0778 83.2311 34.3978C83.8844 34.7045 84.4044 35.1378 84.7911 35.6978C85.1778 36.2578 85.4244 36.9045 85.5311 37.6378C85.6511 38.3711 85.6378 39.1645 85.4911 40.0178L77.8311 40.1378V38.3778L83.0111 38.2778L82.5911 39.2978C82.6711 38.6845 82.6578 38.1711 82.5511 37.7578C82.4578 37.3311 82.2778 37.0111 82.0111 36.7978C81.7444 36.5711 81.3778 36.4578 80.9111 36.4578C80.4178 36.4578 80.0244 36.5845 79.7311 36.8378C79.4378 37.0911 79.2311 37.4511 79.1111 37.9178C78.9911 38.3711 78.9311 38.9111 78.9311 39.5378C78.9311 40.6178 79.1111 41.4045 79.4711 41.8978C79.8311 42.3911 80.3844 42.6378 81.1311 42.6378C81.4511 42.6378 81.7178 42.5978 81.9311 42.5178C82.1444 42.4378 82.3178 42.3245 82.4511 42.1778C82.5844 42.0178 82.6778 41.8311 82.7311 41.6178C82.7844 41.3911 82.8044 41.1378 82.7911 40.8578L85.7511 41.0178C85.7911 41.4578 85.7444 41.9111 85.6111 42.3778C85.4911 42.8445 85.2578 43.2778 84.9111 43.6778C84.5644 44.0778 84.0778 44.4045 83.4511 44.6578C82.8378 44.9111 82.0578 45.0378 81.1111 45.0378Z" fill="#01321D"/>
</svg>
