<svg width="112" height="94" viewBox="0 0 112 94" fill="none" xmlns="http://www.w3.org/2000/svg">
<path d="M68.9647 73.6063C69.4351 74.3522 69.6311 75.0588 69.5919 75.7262C69.5527 76.3936 69.2391 77.061 68.6903 77.6891L69.9055 79.652C69.9447 79.6913 69.9447 79.7698 69.9447 79.8483C69.9447 79.9268 69.9055 79.9661 69.8271 80.0054L67.2397 81.6149C67.2005 81.6542 67.1221 81.6542 67.0437 81.6542C66.9653 81.6542 66.9262 81.6149 66.887 81.5364L65.8285 79.8091C65.3188 80.0839 64.8876 80.3194 64.4564 80.5157C64.4172 80.555 64.3388 80.555 64.2996 80.5157C64.2211 80.4764 64.182 80.4372 64.1428 80.3979L63.0843 78.1995C63.0451 78.121 63.0451 78.0817 63.0843 78.0032C63.1235 77.9247 63.1627 77.8854 63.2411 77.8854C63.4371 77.8069 63.5939 77.7676 63.79 77.6891C63.986 77.6106 64.2211 77.4928 64.4956 77.3751C64.77 77.2573 65.0444 77.1003 65.2796 76.9825C65.5148 76.8254 65.7108 76.6684 65.8677 76.5114C65.9853 76.3543 66.0637 76.1581 66.0637 76.0403C66.0637 75.8833 66.0637 75.7655 66.0245 75.687C65.9853 75.5692 65.9853 75.4907 65.9461 75.4514C65.9069 75.3729 65.8285 75.2944 65.7501 75.2551C65.6717 75.1766 65.5541 75.0981 65.3972 75.0196C65.2404 74.9411 65.0052 74.9018 64.7308 74.9018C64.4564 74.9018 64.1428 74.9803 63.8291 75.0589C63.4371 75.1766 63.0451 75.2551 62.6139 75.2551C62.1827 75.2551 61.7514 75.2159 61.3202 75.0981C60.889 74.9803 60.4577 74.784 60.0657 74.4307C59.6345 74.1166 59.2816 73.7241 59.0072 73.2137C58.576 72.5463 58.4192 71.8397 58.4584 71.1723C58.5368 70.5049 58.8112 69.8375 59.3209 69.2094L58.1056 67.2073C58.0664 67.168 58.0664 67.0895 58.0664 67.011C58.0664 66.9324 58.1056 66.8932 58.184 66.8539L60.7713 65.2444C60.8105 65.2051 60.8889 65.2051 60.9673 65.2051C61.0458 65.2051 61.085 65.2443 61.1242 65.3228L62.1827 67.0502C62.6531 66.7754 63.1235 66.5398 63.5939 66.3043C63.6331 66.265 63.7115 66.265 63.79 66.3043C63.8684 66.3043 63.9076 66.3436 63.9468 66.4221L65.0052 68.6205C65.0444 68.699 65.0444 68.7383 65.0052 68.8168C64.966 68.8953 64.9268 68.9346 64.8876 68.9346C64.0643 69.2094 63.3587 69.5235 62.7707 69.8768C62.5355 70.0338 62.3395 70.1909 62.2219 70.3479C62.1042 70.5049 62.0258 70.7012 62.0258 70.8582C62.0258 71.0153 62.0258 71.133 62.0258 71.2115C62.065 71.2901 62.065 71.4079 62.1042 71.4471C62.1434 71.5256 62.2218 71.5649 62.3002 71.6434C62.3786 71.7219 62.4963 71.8004 62.6531 71.8397C62.8099 71.9182 63.0451 71.9575 63.3195 71.9575C63.5939 71.9575 63.9075 71.8789 64.2212 71.8004C64.6132 71.6826 65.0052 71.6041 65.4364 71.6041C65.8677 71.6041 66.2989 71.6434 66.7301 71.7612C67.1614 71.8789 67.5926 72.1145 67.9846 72.4286C68.3374 72.7426 68.6902 73.1352 68.9647 73.6063Z" fill="#827868"/>
<path d="M67.1238 82.1652C67.0454 82.1652 67.0062 82.1652 66.9278 82.126C66.7317 82.0867 66.5357 81.9297 66.4181 81.7334L65.6341 80.4771C65.3204 80.6341 65.0068 80.7912 64.6932 80.9482C64.4972 81.0267 64.3012 81.0267 64.1052 80.9875C63.9091 80.9089 63.7524 80.7912 63.6347 80.6341C63.6347 80.6341 63.6348 80.5949 63.5955 80.5949L62.5371 78.3964C62.4194 78.1609 62.4195 77.9253 62.4979 77.7291C62.5763 77.4935 62.7723 77.3365 63.0075 77.258C63.1643 77.2187 63.3603 77.1402 63.5171 77.0617C63.7131 76.9831 63.9092 76.9046 64.1836 76.7476C64.458 76.6298 64.6932 76.5121 64.8892 76.355C65.0852 76.2372 65.2421 76.1195 65.3205 76.0017C65.3989 75.8839 65.3989 75.8447 65.3989 75.8447C65.3989 75.7269 65.3989 75.6484 65.3989 75.6484C65.3989 75.6091 65.3597 75.5699 65.3597 75.5699C65.3597 75.5699 65.3596 75.5306 65.2812 75.4913C65.2812 75.4913 65.2028 75.4128 65.046 75.3343C65.0068 75.3343 64.9284 75.2951 64.654 75.2951C64.4188 75.2951 64.1836 75.3343 63.9091 75.4521C63.4779 75.6091 63.0075 75.6876 62.5371 75.6876C62.0666 75.6876 61.5962 75.6091 61.0866 75.4913C60.577 75.3736 60.0673 75.0988 59.5969 74.7454C59.1264 74.3921 58.7344 73.921 58.3816 73.3714C57.9112 72.5862 57.676 71.7618 57.7544 70.9767C57.8328 70.3093 58.068 69.6419 58.4992 69.0138L57.48 67.3649C57.3624 67.1686 57.3232 66.9723 57.3624 66.7761C57.4016 66.5405 57.5584 66.3442 57.7544 66.2265L60.3417 64.6169C60.5377 64.4991 60.7729 64.4598 60.969 64.4991C61.2042 64.5384 61.361 64.6954 61.4786 64.8524L62.2627 66.1087C62.5763 65.9516 62.8899 65.7946 63.2427 65.6376C63.4387 65.5591 63.6347 65.5591 63.8308 65.5983C64.066 65.6768 64.262 65.8339 64.3404 66.0302L65.3989 68.2286C65.5165 68.4249 65.5164 68.6605 65.438 68.896C65.3596 69.1315 65.1637 69.3278 64.9284 69.4063C64.1836 69.6812 63.5172 69.9952 62.9683 70.3093C62.7723 70.4271 62.6547 70.5056 62.5763 70.6233C62.4979 70.7019 62.4979 70.7804 62.4979 70.7804C62.4979 70.9374 62.4979 70.9767 62.4979 71.0159C62.4979 71.0552 62.4979 71.0552 62.5371 71.0944C62.5371 71.0944 62.5371 71.1337 62.5763 71.1337C62.5763 71.1337 62.6547 71.173 62.8115 71.2515C62.8507 71.2515 62.9683 71.2907 63.2035 71.2907C63.4387 71.2907 63.674 71.2515 63.9484 71.1337C64.3796 71.0159 64.85 70.9374 65.3205 70.8981C65.7909 70.8981 66.3005 70.9374 66.7709 71.0944C67.2806 71.2515 67.7902 71.487 68.2606 71.8404C68.7311 72.1937 69.1231 72.6648 69.4759 73.2144C69.9855 74.0781 70.2207 74.9025 70.1815 75.6876C70.1423 76.355 69.8679 77.0224 69.3975 77.6505L70.3775 79.2601C70.4951 79.4564 70.5344 79.6527 70.4952 79.8882C70.456 80.1238 70.2991 80.2808 70.1423 80.3986L67.555 82.0082C67.3982 82.1259 67.2806 82.1652 67.1238 82.1652ZM65.8301 79.1423C66.0261 79.1423 66.2221 79.2601 66.3397 79.4171L67.2413 80.8697L69.2407 79.6527L68.2214 78.0039C68.1038 77.7683 68.1038 77.4935 68.2998 77.2972C68.7703 76.7476 69.0447 76.2372 69.0839 75.6876C69.1231 75.138 68.9271 74.5491 68.535 73.921C68.2606 73.4892 67.9862 73.1359 67.6334 72.861C67.2805 72.5862 66.9277 72.39 66.5749 72.3115C66.1829 72.1937 65.8301 72.1544 65.4772 72.1544C65.1244 72.1544 64.7716 72.2329 64.4188 72.3115C64.0268 72.4292 63.6739 72.5077 63.3211 72.5077C62.9683 72.5077 62.6547 72.4685 62.4195 72.3507C62.2235 72.2329 62.0274 72.1544 61.9098 72.0366C61.7922 71.9189 61.6746 71.8011 61.5962 71.6833C61.5178 71.5655 61.4394 71.4085 61.4394 71.2515C61.4002 71.0944 61.4002 70.9374 61.4002 70.7411C61.4002 70.4663 61.5178 70.1915 61.7138 69.9167C61.9098 69.6812 62.1451 69.4849 62.4587 69.2886C62.9683 68.9745 63.5955 68.6997 64.3012 68.4249L63.5564 66.8938C63.2035 67.0509 62.8115 67.2472 62.4587 67.4434C62.1843 67.6005 61.8314 67.522 61.6746 67.2472L60.7729 65.7946L58.7736 67.0116L59.8321 68.739C59.9497 68.9352 59.9497 69.2101 59.7929 69.4063C59.3617 69.956 59.1265 70.5056 59.0481 71.0552C59.0089 71.6048 59.1265 72.1544 59.5185 72.7433C59.7929 73.1751 60.1065 73.5284 60.4594 73.8033C60.8122 74.0781 61.165 74.2743 61.5178 74.3528C61.9098 74.4706 62.2627 74.5099 62.6547 74.5099C63.0075 74.5099 63.3603 74.4706 63.6739 74.3528C64.066 74.2351 64.4188 74.1566 64.7716 74.1566C65.1244 74.1566 65.438 74.1958 65.6732 74.3136C65.8693 74.4314 66.0261 74.5099 66.1437 74.6277C66.2613 74.7454 66.3789 74.8632 66.4573 74.981C66.5357 75.0988 66.5749 75.2558 66.6141 75.4128C66.6533 75.5699 66.6533 75.7269 66.6533 75.9232C66.6533 76.198 66.5357 76.4728 66.3397 76.7476C66.1437 76.9831 65.9085 77.1794 65.5949 77.3757C65.3596 77.5328 65.0852 77.6505 64.7716 77.8076C64.458 77.9253 64.2228 78.0431 64.0268 78.1216C63.9484 78.1609 63.87 78.1609 63.8308 78.2002L64.5756 79.7705C64.8892 79.6134 65.242 79.4171 65.5949 79.2209C65.6341 79.1816 65.7517 79.1423 65.8301 79.1423ZM64.6148 68.3071C64.6148 68.3464 64.6148 68.3464 64.6148 68.3071C64.6148 68.3464 64.6148 68.3464 64.6148 68.3071Z" fill="#827868"/>
<path d="M63.3981 93.2756C57.4001 93.2756 49.7948 89.1928 44.2281 72.037C39.6022 57.7078 23.0588 27.6754 1.57583 26.1444C0.987791 26.1051 0.478178 25.6733 0.321369 25.0844C0.164559 24.4955 0.438967 23.9067 0.948598 23.5926C2.32068 22.7289 34.4275 2.86437 42.7384 0.665922C47.2075 -0.511818 52.147 1.33331 57.0865 6.00501C61.6732 10.3627 66.0246 16.9973 69.7097 25.2022C74.0611 34.9382 78.9614 44.9882 85.273 52.4472C93.1527 61.7121 101.072 64.4209 109.579 60.7307C110.049 60.5344 110.637 60.6129 111.029 60.9662C111.421 61.3196 111.578 61.8692 111.421 62.3795C107.226 76.5909 73.1987 92.0193 65.3974 93.1578C64.6918 93.2363 64.0645 93.2756 63.3981 93.2756ZM5.6137 23.9852C16.4336 26.3407 25.2541 34.8989 30.9385 42.0831C38.975 52.1724 44.3849 63.7536 46.8154 71.1733C51.2845 84.9921 57.4001 91.4697 64.927 90.4097C71.4346 89.4676 100.366 76.3554 107.501 64.3424C86.6843 70.1133 73.1203 39.6884 67.1615 26.3407C60.1835 10.6767 50.6573 1.45108 43.444 3.37472C37.0148 5.06282 14.1598 18.7639 5.6137 23.9852Z" fill="#827868"/>
<path d="M36.4284 19.7458C35.9188 19.7458 35.4484 19.471 35.2131 18.9999C34.8603 18.3325 35.1347 17.5081 35.8012 17.1548C35.8404 17.1155 41.5639 14.1319 48.8164 10.4809C49.4828 10.1276 50.3061 10.4024 50.6589 11.0698C51.0117 11.7372 50.7373 12.5616 50.0709 12.9149C42.8576 16.6052 37.1341 19.5495 37.0949 19.5888C36.8597 19.7066 36.6244 19.7458 36.4284 19.7458Z" fill="#827868"/>
<path d="M35.3308 28.6968C34.8996 28.6968 34.5075 28.5005 34.2331 28.1472C33.8019 27.5191 33.9195 26.6554 34.5467 26.2235C36.9773 24.4569 44.9354 20.3741 53.0895 16.7624C53.7951 16.4483 54.5791 16.7624 54.8928 17.469C55.2064 18.1757 54.8928 18.9608 54.1871 19.2749C46.3075 22.7688 38.3886 26.7732 36.154 28.422C35.9188 28.579 35.6052 28.6968 35.3308 28.6968Z" fill="#827868"/>
<path d="M45.6791 37.1361C45.2087 37.1361 44.7774 36.9005 44.503 36.4687C44.111 35.8406 44.307 34.9769 44.9343 34.5843C45.0127 34.545 52.3043 30.0304 57.7535 27.1645C58.4199 26.8112 59.2431 27.086 59.5959 27.7534C59.9488 28.4208 59.6744 29.2452 59.0079 29.5985C53.6764 32.3858 46.424 36.8613 46.3456 36.9005C46.1887 37.0576 45.9143 37.1361 45.6791 37.1361Z" fill="#827868"/>
<path d="M52.03 48.0505C51.5988 48.0505 51.1675 47.8542 50.9323 47.5009C50.5011 46.8727 50.6187 46.009 51.246 45.5772C51.2852 45.5379 56.3031 41.9262 61.0074 38.9426C61.6346 38.55 62.497 38.7071 62.8891 39.3744C63.2811 40.0026 63.1243 40.8662 62.4578 41.2588C57.7928 44.2032 52.8925 47.7757 52.8141 47.8149C52.618 47.9719 52.3044 48.0505 52.03 48.0505Z" fill="#827868"/>
</svg>
