<svg width="402" height="439" viewBox="0 0 402 439" fill="none" xmlns="http://www.w3.org/2000/svg">
<path d="M399.754 221.313C396.696 236.271 391.247 250.6 383.837 263.987C334.286 353.613 198.488 402.057 129.649 328.527C119.77 317.967 111.263 307.014 104.05 295.786C80.4499 258.962 71.0022 219.311 73.9423 181.741C76.3337 151.199 86.9183 122.069 104.716 96.9833C111.773 87.0118 120.005 77.6684 129.335 69.1494C257.527 -48.3891 423.158 106.209 399.754 221.313Z" fill="#F6B40C"/>
<path d="M383.84 263.987C334.288 353.613 198.491 402.057 129.651 328.527C119.772 317.966 111.266 307.013 104.052 295.786C103.896 293.43 103.778 290.996 103.66 288.484C102.406 264.89 102.327 252.563 127.809 250.796C134.042 250.364 143.804 249.54 155.604 248.519C157.72 245.064 164.777 233.287 170.422 221.117C164.816 220.41 105.62 212.559 85.8624 195.285C81.8637 191.791 77.8259 187.08 73.9449 181.702C57.6366 159.246 43.3669 125.288 41.3676 120.145C39.2507 114.728 39.0547 110.449 40.27 102.44C39.3683 103.5 31.3318 92.9395 32.5079 89.21C34.468 83.125 53.5988 70.3661 64.2619 69.1099C66.1436 68.8743 71.4751 78.1785 70.2598 78.414C76.9242 79.2777 90.2139 82.4968 93.2325 85.9908C94.5653 87.5219 99.3088 91.7617 104.68 96.9831C113.382 105.384 123.693 116.337 123.85 122.461C124.124 132.394 125.614 132.276 128.671 132.551C131.768 132.826 134.317 134.317 134.042 137.929C133.768 141.58 134.317 144.407 140.511 143.425C146.705 142.483 150.86 143.543 152.075 148.686C153.291 153.789 170.226 153.946 176.655 154.064C183.084 154.182 215.779 156.734 219.621 159.05C221.934 136.987 230.755 102.047 230.755 102.047C230.755 102.047 203.862 93.0965 204.254 88.7781C204.489 86.3441 226.011 77.9822 240.046 72.8001C240.242 72.7216 248.709 73.7423 253.257 71.8579C253.257 71.8579 245.769 92.3506 269.8 100.673C269.8 100.673 270.114 104.678 271.839 104.913C273.015 105.07 274.779 104.128 275.563 100.399C275.916 98.7104 276.073 96.4334 275.916 93.4498C275.916 93.4498 276.073 93.4498 276.386 93.4498H276.425C280.385 93.4891 284.109 93.8817 287.206 94.5491C291.518 95.4912 294.537 97.0616 295.164 99.1422C296.144 102.322 293.753 106.052 284.148 107.504C280.542 118.457 281.09 128.036 284.54 128.546C288.343 129.135 289.793 127.879 291.636 126.544C293.478 125.21 294.929 132.001 287.206 137.144C281.169 141.148 273.603 142.679 267.683 138.754C266.194 149.392 264.586 161.366 263.371 172.28C266.115 172.319 306.415 198.033 317.314 203.804C324.37 207.573 338.483 216.21 349.185 228.576C372.471 227.28 379.253 229.047 381.762 247.223C382.35 250.678 383.056 256.567 383.84 263.987Z" fill="#F9DEC4"/>
<path d="M237.612 92.1152C236.789 91.7618 236.436 90.7804 236.789 89.9952L238.474 86.2265C238.827 85.402 239.807 85.0487 240.591 85.4021C241.414 85.7554 241.767 86.7368 241.414 87.522L239.729 91.2908C239.415 92.1152 238.435 92.5077 237.612 92.1152Z" fill="#202D37"/>
<path d="M247.491 96.5917C246.667 96.2384 246.315 95.257 246.667 94.4718L248.353 90.703C248.706 89.8786 249.686 89.5253 250.47 89.8786C251.293 90.2319 251.646 91.2134 251.293 91.9986L249.608 95.7673C249.255 96.5917 248.314 96.9451 247.491 96.5917Z" fill="#202D37"/>
<path d="M219.699 160.384C219.66 160.384 219.62 160.384 219.542 160.384C218.797 160.306 218.248 159.639 218.327 158.893C220.365 139.303 227.618 109.349 229.186 102.95C226.951 102.165 221.894 100.398 216.876 98.3175C204.331 93.0962 202.763 90.5837 202.92 88.6601C203.038 87.3646 203.195 85.5587 227.735 76.019C239.496 71.4258 251.374 67.2252 251.492 67.186C252.198 66.9504 252.982 67.3037 253.256 68.0104C253.491 68.717 253.138 69.5022 252.433 69.777C231.224 77.2753 208.408 86.3439 205.743 89.0134C206.096 89.6415 208.095 91.7222 218.483 96.0013C224.834 98.6316 231.146 100.712 231.224 100.752C231.891 100.987 232.283 101.694 232.126 102.4C232.048 102.754 223.305 137.458 221.032 159.207C220.992 159.874 220.404 160.384 219.699 160.384Z" fill="#827868"/>
<path d="M248.669 117.556C247.924 117.556 247.297 116.928 247.297 116.182C247.297 115.436 247.924 114.808 248.669 114.808C255.373 114.808 259.293 111.824 259.646 106.407C259.685 105.661 260.351 105.072 261.096 105.111C261.841 105.15 262.429 105.818 262.39 106.564C261.919 113.434 256.784 117.556 248.669 117.556Z" fill="#202D37"/>
<path d="M263.489 173.694C263.45 173.694 263.371 173.694 263.332 173.694C262.587 173.616 262.038 172.948 262.117 172.163C263.136 162.741 264.587 151.435 266.429 138.558C268.82 121.678 271.016 108.055 271.016 107.898C271.133 107.231 271.721 106.72 272.388 106.759C276.896 106.838 280.816 106.642 284.031 106.131C290.735 105.071 292.93 103.069 293.636 101.97C294.106 101.224 294.224 100.4 293.949 99.536C293.087 96.6702 283.6 94.1576 270.898 94.9821C270.153 95.0213 269.487 94.4717 269.448 93.6865C269.409 92.9406 269.957 92.2733 270.741 92.234C282.032 91.5273 294.929 93.2547 296.615 98.7508C297.125 100.4 296.889 102.009 295.988 103.462C294.302 106.131 290.46 107.976 284.501 108.879C281.404 109.35 277.759 109.586 273.564 109.547C272.976 113.198 271.133 124.975 269.173 138.99C267.37 151.828 265.92 163.095 264.9 172.477C264.783 173.184 264.195 173.694 263.489 173.694Z" fill="#827868"/>
<path d="M273.365 102.009C272.698 102.009 272.11 101.499 271.992 100.832C271.875 100.086 272.424 99.3791 273.169 99.3006C278.696 98.5547 284.89 98.8295 285.164 98.8688C285.909 98.908 286.497 99.5361 286.458 100.321C286.419 101.067 285.753 101.656 285.008 101.617C284.929 101.617 278.814 101.303 273.521 102.049C273.482 102.009 273.443 102.009 273.365 102.009Z" fill="#202D37"/>
<path d="M271.287 71.1135C271.287 71.1135 280.97 66.6381 288.183 74.6859C296.572 84.1471 287.517 94.1972 287.321 94.5112C281.989 93.4513 276.03 93.412 276.03 93.412C276.618 102.991 272.698 104.483 271.012 104.247C269.288 104.012 269.915 100.635 269.915 100.635C245.884 92.3128 253.371 71.8201 253.371 71.8201C248.824 73.7045 240.356 72.6838 240.16 72.7623C242.904 58.7079 265.093 60.396 271.287 71.1135Z" fill="#202D37"/>
<path d="M271.327 105.661C271.131 105.661 270.974 105.661 270.778 105.622C270.073 105.504 269.485 105.151 269.093 104.601C268.465 103.738 268.387 102.521 268.426 101.618C260.899 98.7913 255.685 94.4729 252.98 88.7412C250.197 82.8918 250.746 77.0423 251.412 73.8624C247.453 74.6869 242.592 74.3336 240.749 74.2158C240.514 74.2158 240.318 74.1765 240.24 74.1765C239.887 74.2158 239.534 74.098 239.26 73.8624C238.868 73.5484 238.711 73.038 238.789 72.5669C239.965 66.7175 244.356 62.7132 250.863 61.614C258.978 60.2399 267.76 63.6161 271.837 69.4655C274.777 68.5234 282.931 66.7568 289.203 73.8232C297.279 82.9311 290.693 92.5493 288.459 95.2973L288.38 95.3758C288.067 95.8077 287.518 96.004 287.008 95.9255C283.401 95.2188 279.481 94.9833 277.404 94.8655C277.482 99.3409 276.541 102.521 274.581 104.327C273.679 105.151 272.464 105.661 271.327 105.661ZM271.288 102.913C271.523 102.913 272.111 102.874 272.778 102.285C273.64 101.5 275.012 99.3017 274.659 93.5307C274.62 93.1381 274.777 92.7848 275.051 92.51C275.326 92.2352 275.679 92.0782 276.071 92.0782C276.306 92.0782 281.598 92.1567 286.773 93.0596C289.243 89.8012 293.32 82.5385 287.204 75.6291C280.775 68.4056 271.994 72.3314 271.915 72.3706C271.288 72.6847 270.504 72.4099 270.151 71.821C266.976 66.3642 258.743 63.0665 251.373 64.2835C248.511 64.7546 243.689 66.3249 241.925 71.507C244.552 71.664 249.766 71.821 252.863 70.5648C253.372 70.3685 253.96 70.4863 254.353 70.8396C254.745 71.2322 254.862 71.7818 254.705 72.2921C254.666 72.3706 251.961 80.0652 255.529 87.5635C258.038 92.8241 263.055 96.7891 270.426 99.3409C271.053 99.5765 271.445 100.205 271.327 100.911C271.131 101.657 271.131 102.56 271.288 102.913Z" fill="#202D37"/>
<path d="M287.324 137.144C281.286 141.148 273.72 142.679 267.801 138.753C270.231 121.676 272.387 108.132 272.387 108.132C277.209 108.211 281.13 107.975 284.266 107.465C280.659 118.418 281.208 127.997 284.658 128.507C288.46 129.096 289.911 127.84 291.754 126.505C293.596 125.249 295.007 132.001 287.324 137.144Z" fill="#202D37"/>
<path d="M275.641 142.444C272.544 142.444 269.604 141.62 267.056 139.931C266.625 139.657 266.39 139.107 266.468 138.597C268.859 121.716 271.055 108.093 271.055 107.936C271.172 107.269 271.76 106.758 272.427 106.798C276.935 106.876 280.855 106.68 284.07 106.17C284.54 106.091 285.011 106.287 285.324 106.641C285.638 106.994 285.716 107.504 285.599 107.975C282.698 116.808 282.698 124.189 284.188 126.623C284.423 126.976 284.658 127.212 284.893 127.251C287.873 127.722 289.049 126.898 290.617 125.759L291.009 125.484C291.675 125.013 292.42 124.935 293.126 125.249C293.988 125.642 294.537 126.662 294.655 127.997C294.851 130.627 293.243 134.946 288.147 138.361C283.952 141.07 279.64 142.444 275.641 142.444ZM269.291 138.086C274.113 140.834 280.503 140.088 286.579 136.045C290.617 133.375 291.558 130.47 291.754 129.371C291.832 128.9 291.871 128.507 291.832 128.233C290.146 129.45 288.304 130.549 284.423 129.96C283.678 129.842 282.659 129.41 281.796 128.076C279.758 124.778 279.993 117.201 282.306 109.192C279.718 109.467 276.778 109.624 273.525 109.585C272.976 113.118 271.212 124.464 269.291 138.086Z" fill="#202D37"/>
<path d="M297.829 359.815C297.006 359.815 296.221 359.737 295.516 359.619C294.771 359.501 294.261 358.794 294.379 358.049C294.497 357.303 295.202 356.792 295.947 356.91C300.769 357.656 311.197 355.929 327.231 335.632C357.573 297.238 366.315 275.332 360.553 251.895C354.359 226.691 325.466 209.653 316.764 205.021C312.177 202.587 302.69 196.816 292.615 190.652C280.541 183.311 265.565 174.203 263.409 173.654C262.978 173.693 262.115 174.046 261.175 174.478C257.45 176.088 250.472 179.111 237.967 176.009C226.088 173.104 223.109 167.215 221.149 163.29C220.404 161.798 219.816 160.659 218.993 160.149C215.7 158.147 184.22 155.517 176.732 155.359H175.948C163.639 155.124 152.074 154.182 150.82 148.921C150.153 146.055 148.468 143.543 140.823 144.721C137.726 145.192 135.648 144.838 134.276 143.582C132.708 142.13 132.63 139.813 132.787 137.733C132.865 136.869 133.061 134.199 128.67 133.807L128.435 133.768C124.123 133.414 122.829 131.844 122.594 122.383C122.398 115.199 105.58 99.4168 97.5044 91.84C94.9562 89.4453 93.1137 87.7179 92.2904 86.7757C89.8207 83.9099 77.5503 80.6515 70.1803 79.67C69.4354 79.5523 68.8866 78.8849 69.0042 78.139C69.1218 77.3931 69.7882 76.8435 70.5331 76.9612C76.4919 77.7464 90.8007 80.887 94.3682 85.0091C95.0738 85.8335 96.9947 87.6394 99.3861 89.8771C111.813 101.537 125.142 114.649 125.338 122.343C125.456 126.662 125.809 129.174 126.436 130.234C126.789 130.823 127.141 130.941 128.67 131.059L128.906 131.098C133.335 131.491 135.805 134.042 135.531 137.968C135.374 139.97 135.57 141.07 136.158 141.58C136.824 142.208 138.275 142.326 140.431 142.012C143.214 141.58 151.643 140.324 153.525 148.293C153.642 148.843 154.662 150.649 162.149 151.708C167.01 152.415 172.655 152.533 176.066 152.572H176.85C181.554 152.651 216.013 155.045 220.482 157.754C221.972 158.657 222.756 160.188 223.658 161.994C225.5 165.645 228.048 170.67 238.672 173.261C250.315 176.127 256.47 173.457 260.155 171.848C261.566 171.259 262.586 170.788 263.566 170.827C265.291 170.866 272.308 174.988 294.105 188.218C304.14 194.343 313.627 200.114 318.136 202.508C327.113 207.259 356.828 224.846 363.297 251.149C369.295 275.528 360.435 298.062 329.465 337.242C315.078 355.458 304.611 359.815 297.829 359.815Z" fill="#827868"/>
<path d="M273.839 329.902C273.251 329.902 272.702 329.509 272.506 328.92C269.801 319.42 270.389 317.221 272.898 312.785C273.878 311.097 277.328 306.975 281.757 301.714C289.206 292.842 300.457 279.494 301.907 274.587C304.024 267.442 301.163 257.235 266.429 231.246C265.841 230.775 265.684 229.951 266.155 229.323C266.625 228.734 267.449 228.577 268.076 229.048C302.143 254.526 307.278 265.99 304.534 275.333C302.927 280.751 292.381 293.352 283.874 303.442C279.719 308.388 276.152 312.628 275.328 314.081C273.172 317.849 272.702 319.302 275.211 328.096C275.407 328.842 275.015 329.588 274.27 329.784C274.074 329.902 273.956 329.902 273.839 329.902Z" fill="#827868"/>
<path d="M170.46 222.491C170.421 222.491 170.342 222.491 170.303 222.491C163.678 221.666 104.953 213.736 85.0378 196.345C62.8101 176.912 40.3863 121.244 40.1902 120.695C37.9949 115.081 37.7205 110.487 39.0926 101.851C39.2102 101.105 39.9158 100.594 40.6607 100.712C41.4055 100.83 41.9152 101.537 41.7976 102.283C40.5039 110.448 40.6999 114.531 42.7384 119.713C42.9344 120.263 65.0838 175.263 86.8411 194.303C106.129 211.184 164.109 218.957 170.656 219.782C171.401 219.86 171.95 220.567 171.832 221.313C171.754 221.98 171.126 222.491 170.46 222.491Z" fill="#827868"/>
<path d="M155.641 249.894C155.406 249.894 155.132 249.815 154.936 249.698C154.308 249.305 154.073 248.441 154.465 247.813C157.444 242.945 172.381 217.938 176.066 202.352C176.222 201.607 176.967 201.135 177.712 201.332C178.457 201.489 178.888 202.235 178.731 202.981C174.968 218.998 159.797 244.359 156.817 249.266C156.543 249.658 156.072 249.894 155.641 249.894Z" fill="#827868"/>
<path d="M287.243 366.098C286.341 366.098 284.459 366.099 274.267 353.811C271.052 349.924 264.623 341.798 264.309 340.581C263.212 336.38 270.621 329.51 272.934 327.508C273.248 327.233 273.64 327.115 274.032 327.194C274.424 327.233 274.776 327.469 274.972 327.783C279.834 335.163 293.202 354.871 296.534 357.344C296.847 357.58 297.043 357.894 297.083 358.286C297.122 358.679 297.004 359.032 296.769 359.307C295.828 360.445 290.967 366.098 287.243 366.098ZM266.936 339.756C267.485 340.738 271.562 346.195 276.345 352.005C284.695 362.094 286.929 363.233 287.282 363.35C288.889 363.272 291.751 360.759 293.79 358.561C288.929 353.536 277.129 336.027 273.561 330.649C269.955 333.985 266.701 338.147 266.936 339.756Z" fill="#827868"/>
<path d="M240.124 397.19C239.105 397.19 238.282 396.876 237.733 396.247C236.949 395.384 236.792 394.128 237.341 392.439C235.302 393.617 233.185 394.442 231.813 393.931C230.99 393.617 230.48 392.95 230.284 392.008C229.696 388.631 233.028 384.902 236.596 380.976C238.909 378.385 241.3 375.716 242.123 373.596C243.378 370.219 243.691 367.707 243.691 366.451C243.613 366.49 243.535 366.529 243.456 366.529C238.556 368.414 233.107 370.337 230.323 368.924C229.5 368.492 228.951 367.825 228.716 366.961C227.854 363.742 233.695 359.895 245.926 352.121C252.434 347.999 259.843 343.328 264.822 339.127C265.41 338.656 266.272 338.695 266.742 339.284C267.213 339.873 267.174 340.737 266.586 341.208C261.45 345.526 253.962 350.276 247.376 354.438C243.064 357.186 238.987 359.738 235.969 361.936C231.931 364.88 231.421 365.98 231.382 366.254C231.421 366.333 231.46 366.372 231.578 366.451C233.538 367.432 240.281 364.802 242.515 363.938C243.77 363.467 244.123 363.31 244.436 363.31C244.985 363.271 245.534 363.506 245.887 363.977C247.141 365.626 246.161 370.612 244.711 374.538C243.731 377.168 241.143 380.034 238.674 382.782C235.929 385.805 232.872 389.26 232.989 391.34C234.126 391.222 237.419 389.338 240.202 387.1C240.712 386.669 241.496 386.708 241.967 387.14C242.476 387.611 242.555 388.357 242.202 388.906C239.654 392.832 239.771 394.128 239.81 394.363C240.085 394.442 241.3 394.481 243.809 393.225C244.358 392.95 245.064 393.068 245.456 393.539C245.652 393.774 246.004 394.088 246.788 394.128C250.199 394.245 256.981 388.788 260.431 385.334C260.941 384.823 261.725 384.784 262.273 385.216C262.822 385.648 262.94 386.433 262.548 387.022C261.489 388.71 260.039 391.733 260.313 392.95V392.989C261.568 392.557 265.37 389.613 271.564 382.861C277.484 376.383 282.933 369.277 286.108 363.938C286.501 363.271 287.324 363.074 287.99 363.467C288.657 363.86 288.853 364.684 288.461 365.351C285.05 371.083 279.052 378.856 272.74 385.648C261.96 397.268 259.921 396.09 259.059 395.58C258.353 395.148 257.844 394.481 257.648 393.656C257.491 392.989 257.53 392.282 257.648 391.497C254.355 394.128 250.003 396.993 246.671 396.915C245.73 396.876 244.907 396.601 244.201 396.13C242.594 396.836 241.222 397.19 240.124 397.19Z" fill="#827868"/>
<path d="M241.025 389.573C240.633 389.573 240.241 389.416 239.967 389.102C239.457 388.513 239.536 387.65 240.124 387.178C245.69 382.389 251.414 375.951 252.394 374.106C252.747 373.438 253.57 373.163 254.237 373.556C254.903 373.909 255.177 374.734 254.785 375.401C253.531 377.717 247.494 384.43 241.849 389.259C241.653 389.495 241.339 389.573 241.025 389.573Z" fill="#827868"/>
<path d="M244.396 395.895C243.965 395.895 243.533 395.699 243.259 395.307C242.828 394.678 242.985 393.815 243.612 393.383C250.864 388.397 258.234 379.093 258.313 379.015C258.783 378.426 259.646 378.308 260.234 378.779C260.822 379.25 260.939 380.114 260.469 380.703C260.155 381.095 252.746 390.439 245.18 395.621C244.945 395.817 244.67 395.895 244.396 395.895Z" fill="#827868"/>
<path d="M261.331 387.729C261.018 387.729 260.704 387.611 260.43 387.375C259.842 386.865 259.802 386.001 260.312 385.452C261.135 384.47 262.076 383.332 262.507 382.743C262.782 382.39 263.644 381.29 264.703 382.076C265.134 382.39 265.565 383.175 264.977 384.038C264.938 384.117 264.859 384.195 264.781 384.235C264.742 384.274 264.703 384.313 264.663 384.392C264.193 384.981 263.291 386.198 262.39 387.218C262.115 387.572 261.723 387.729 261.331 387.729Z" fill="#827868"/>
<path d="M106.404 330.687C105.699 330.687 105.111 330.137 105.032 329.43C104.758 326.29 103.425 309.487 102.288 288.563C101.622 275.961 101.386 267.246 104.483 260.847C107.855 253.82 115.029 250.286 127.73 249.423C137.649 248.716 156.623 247.067 178.615 245.143C212.172 242.199 253.923 238.509 277.837 237.096C278.581 237.056 279.248 237.645 279.287 238.391C279.326 239.137 278.738 239.804 277.993 239.844C254.119 241.257 212.408 244.908 178.85 247.892C156.858 249.815 137.884 251.503 127.926 252.171C116.323 252.995 109.893 256.018 106.992 262.064C104.209 267.835 104.444 276.275 105.071 288.406C106.208 309.291 107.541 326.054 107.776 329.195C107.855 329.941 107.267 330.608 106.522 330.687C106.483 330.687 106.444 330.687 106.404 330.687Z" fill="#827868"/>
<path d="M109.263 387.416C103.461 387.416 100.012 386.002 98.5219 383.176C93.308 373.047 94.092 344.703 96.0522 335.831C98.1299 326.409 105.539 327.665 110.949 328.568C111.38 328.646 111.772 328.725 112.204 328.764C117.535 329.628 142.546 325.231 152.072 322.836C157.639 321.423 162.539 320.441 165.95 322.758C168.302 324.328 169.674 327.233 170.341 331.866C171.36 339.285 172.301 351.259 173.046 366.413C173.399 373.989 168.733 375.56 155.209 378.151C151.955 378.779 147.564 379.917 142.507 381.252C134.079 383.451 124.513 385.924 116.398 387.023C113.654 387.259 111.302 387.416 109.263 387.416ZM98.7179 336.38C96.6794 345.645 96.4442 373.126 100.952 381.88C101.893 383.686 105.265 385.57 115.967 384.157C123.925 383.097 133.412 380.663 141.762 378.465C146.898 377.13 151.328 375.992 154.66 375.324C169.086 372.576 170.498 371.202 170.262 366.452C169.518 351.377 168.616 339.521 167.597 332.14C167.087 328.411 166.028 326.055 164.421 324.956C162.187 323.425 158.58 323.935 152.739 325.427C143.958 327.665 117.849 332.376 111.772 331.434C111.341 331.355 110.91 331.277 110.518 331.237C104.089 330.177 100.129 329.981 98.7179 336.38Z" fill="#827868"/>
<path d="M149.407 439.001C119.457 439.001 113.89 430.325 112.792 422.905C111.812 416.427 109.97 401.352 109.107 386.12C109.068 385.374 109.656 384.707 110.401 384.668C111.146 384.628 111.812 385.217 111.851 385.963C112.714 401.078 114.556 416.035 115.537 422.473C116.085 426.203 117.928 430.874 127.454 433.74C139.332 437.313 160.031 437.038 188.963 432.837C218.012 428.637 255.764 422.591 289.125 417.252C324.289 411.638 354.632 406.77 365.099 405.631C384.504 403.512 395.403 401.117 393.403 376.384C391.443 352.319 383.093 265.834 380.584 247.422C378.232 230.266 372.195 228.696 349.418 229.952C348.673 229.991 348.007 229.402 347.968 228.656C347.928 227.91 348.517 227.243 349.261 227.204C361.336 226.536 368.863 226.693 374.037 229.363C379.212 232.072 381.917 237.175 383.25 247.029C385.798 265.48 394.148 352.044 396.108 376.149C398.264 402.844 385.955 406.142 365.374 408.38C354.985 409.518 324.642 414.386 289.517 420C256.195 425.339 218.404 431.385 189.315 435.585C172.654 437.98 159.639 439.001 149.407 439.001Z" fill="#827868"/>
<path d="M149.056 362.801C143.411 362.801 138.824 358.208 138.824 352.555C138.824 346.902 143.411 342.309 149.056 342.309C154.701 342.309 159.288 346.902 159.288 352.555C159.288 358.208 154.701 362.801 149.056 362.801ZM149.056 345.057C144.94 345.057 141.568 348.433 141.568 352.555C141.568 356.677 144.94 360.053 149.056 360.053C153.172 360.053 156.544 356.677 156.544 352.555C156.544 348.433 153.172 345.057 149.056 345.057Z" fill="#827868"/>
<path d="M248.669 340.344C243.024 340.344 238.438 335.751 238.438 330.098C238.438 324.445 243.024 319.852 248.669 319.852C254.314 319.852 258.901 324.445 258.901 330.098C258.901 335.751 254.314 340.344 248.669 340.344ZM248.669 322.6C244.553 322.6 241.182 325.976 241.182 330.098C241.182 334.22 244.553 337.596 248.669 337.596C252.786 337.596 256.157 334.22 256.157 330.098C256.157 325.976 252.786 322.6 248.669 322.6Z" fill="#827868"/>
<path d="M234.045 320.874C233.889 320.874 233.693 320.835 233.536 320.756C232.83 320.481 232.477 319.657 232.791 318.95C234.359 315.064 238.71 312.041 244.434 310.824C249.962 309.646 257.645 310.117 262.663 314.946C263.212 315.456 263.212 316.359 262.702 316.87C262.193 317.419 261.291 317.419 260.781 316.909C257.292 313.533 251.098 312.198 245.022 313.493C240.2 314.514 236.594 316.948 235.339 319.971C235.104 320.56 234.594 320.874 234.045 320.874Z" fill="#827868"/>
<path d="M229.929 309.41C229.772 309.41 229.615 309.371 229.458 309.331C228.753 309.056 228.4 308.271 228.635 307.565C230.556 302.461 235.927 298.535 243.022 297.044C251.216 295.355 259.291 297.436 264.113 302.461C264.623 303.011 264.623 303.874 264.074 304.385C263.525 304.895 262.663 304.895 262.153 304.345C257.174 299.163 249.295 298.535 243.61 299.713C237.534 300.969 232.791 304.345 231.222 308.468C231.026 309.056 230.517 309.41 229.929 309.41Z" fill="#827868"/>
<path d="M221.501 299.792C221.305 299.792 221.109 299.752 220.952 299.674C220.247 299.36 219.933 298.535 220.247 297.868C222.677 292.372 229.185 288.093 238.044 286.13C249.688 283.578 261.723 285.855 268.662 291.979C269.25 292.49 269.289 293.353 268.779 293.903C268.27 294.492 267.407 294.531 266.858 294.021C260.547 288.485 249.452 286.405 238.633 288.799C230.753 290.527 224.794 294.335 222.756 298.967C222.52 299.478 222.011 299.792 221.501 299.792Z" fill="#827868"/>
<path d="M40.1923 103.893C39.8787 103.893 39.5259 103.814 39.1731 103.579C36.9777 102.362 29.9605 93.0181 31.3326 88.7783C33.5671 81.7903 53.5604 68.9922 64.2234 67.736C65.1251 67.6182 66.5364 68.0108 69.0845 71.8973C70.339 73.7817 71.6719 76.255 71.8679 77.629C72.1031 79.0423 71.2015 79.6311 70.6134 79.7489C67.8692 80.3378 45.7591 98.2002 41.4076 103.343C41.1332 103.657 40.702 103.893 40.1923 103.893ZM64.341 70.5233C54.07 71.8581 35.684 84.1458 33.9199 89.6812C33.2143 91.9189 37.8794 99.0246 39.9963 100.87C44.7398 95.9232 63.2433 80.3378 69.0061 77.5112C68.3005 75.5483 65.5171 71.1514 64.341 70.5233Z" fill="#827868"/>
<path d="M30.2728 80.1028C30.0376 80.1028 29.8024 80.0243 29.5672 79.9066C25.7645 77.7081 23.4516 72.5653 23.6476 66.7944C23.7652 63.5752 24.6277 60.7879 26.1565 58.668C20.2762 59.0605 10.9852 58.9428 9.69153 54.114C8.00582 47.8328 19.2961 44.7314 30.2336 41.7085C30.9393 41.5122 31.6449 41.3159 32.3113 41.1196C29.8808 32.8755 26.627 23.8854 25.1765 22.8647C24.6669 22.4721 23.8044 22.001 22.8243 21.4121C18.6689 18.8996 11.6909 14.7383 10.8284 9.24213C10.2796 5.66965 11.2596 2.68603 13.455 1.23349C15.1799 0.134262 17.336 0.173527 19.1393 1.35127C20.041 1.94014 22.2363 3.19639 24.8237 4.6882C35.5259 10.8517 40.779 14.0316 41.7591 15.6019C43.1312 17.8004 61.0075 63.8108 63.0068 69.0713C63.2812 69.778 62.9284 70.5631 62.2228 70.8379C61.5171 71.1127 60.7331 70.7594 60.4587 70.0528C52.579 49.7171 40.4654 18.7818 39.4462 17.0545C38.4661 15.7197 28.3519 9.87026 23.4908 7.08294C20.7858 5.51262 18.6297 4.29562 17.6496 3.66749C16.748 3.07862 15.7287 3.03936 14.9447 3.54972C13.6902 4.37414 13.1413 6.33704 13.5334 8.81029C14.1998 13.0502 20.4722 16.8189 24.2356 19.0566C25.2549 19.6848 26.1566 20.1951 26.7838 20.6662C29.7632 22.8254 34.0754 37.3509 35.3299 41.7478C35.4475 42.1011 35.3691 42.4937 35.2123 42.8077C35.0163 43.1218 34.7419 43.3573 34.3891 43.4751C33.2914 43.7892 32.1545 44.1032 30.9392 44.4173C23.138 46.5765 11.338 49.7956 12.3181 53.4466C13.1021 56.4303 23.3732 56.4695 30.0376 55.5666C30.704 55.4881 31.3313 55.8806 31.5273 56.5088C31.7233 57.1369 31.4097 57.8435 30.8216 58.1576C28.1951 59.4531 26.5094 62.7508 26.3526 66.9121C26.1958 71.5838 27.9991 75.863 30.9001 77.5511C31.5665 77.9437 31.7625 78.7681 31.4097 79.4355C31.2137 79.8673 30.7432 80.1028 30.2728 80.1028Z" fill="#827868"/>
<path d="M32.6235 90.5847C32.5451 90.5847 32.4667 90.5847 32.3883 90.5455C29.4089 90.0351 23.6069 86.7767 18.785 81.7909C14.5119 77.3548 9.41564 69.9743 9.53325 60.042C9.53325 59.2961 10.1605 58.668 10.9053 58.668C11.6502 58.668 12.2774 59.2961 12.2774 60.042C12.1598 69.0321 16.8249 75.7845 20.7451 79.8673C25.4494 84.7353 30.6241 87.4441 32.8195 87.8367C33.5643 87.9545 34.074 88.6611 33.9564 89.407C33.8387 90.1136 33.2507 90.5847 32.6235 90.5847Z" fill="#827868"/>
<path d="M21.9984 46.9689C21.4888 46.9689 21.0183 46.6941 20.7439 46.1837C17.8037 40.138 15.9612 32.3256 19.4894 28.4391C21.0183 26.7903 24.0761 25.3377 30.2309 27.7324C30.9366 28.0073 31.2894 28.7924 31.015 29.4991C30.7405 30.2057 29.9565 30.559 29.2509 30.2842C26.6635 29.2635 23.2137 28.4391 21.528 30.2842C19.4502 32.5612 20.1167 38.6069 23.2137 44.9667C23.5273 45.6341 23.2529 46.4585 22.5864 46.8118C22.3904 46.9296 22.1944 46.9689 21.9984 46.9689Z" fill="#827868"/>
<path d="M13.609 50.6193C13.1778 50.6193 12.7074 50.3838 12.4722 49.9912C9.33599 45.2017 7.45425 37.9782 10.1984 34.0524C11.3353 32.4036 13.7266 30.7155 18.7054 31.8932C19.4502 32.0503 19.8814 32.7962 19.7246 33.5421C19.5678 34.288 18.823 34.7198 18.0781 34.5628C15.2948 33.8954 13.413 34.2487 12.433 35.6227C10.5513 38.3316 12.1194 44.4558 14.7459 48.4601C15.1771 49.0883 14.9811 49.9519 14.3539 50.3445C14.1579 50.5408 13.8835 50.6193 13.609 50.6193Z" fill="#827868"/>
<path d="M15.3775 62.6732C12.8685 62.6732 9.73233 61.417 6.32172 58.9437C1.49982 55.4498 -0.852321 48.5403 1.30381 44.1435C2.04866 42.6516 4.40078 39.3932 10.5948 41.2384C11.3396 41.4347 11.7316 42.2198 11.5356 42.9657C11.3004 43.7116 10.5556 44.1042 9.81072 43.9079C7.69379 43.2798 4.91042 43.005 3.73434 45.3997C2.32306 48.2655 3.85197 53.8402 7.88982 56.7453C12.4373 60.0429 15.5343 60.357 16.7888 59.6111C17.416 59.2578 17.6904 58.5119 17.5728 57.4912C17.4944 56.7453 18.0432 56.0779 18.7881 55.9994C19.5329 55.9208 20.1994 56.4705 20.2778 57.2164C20.4738 59.3363 19.6897 61.0636 18.1216 62.0058C17.416 62.4377 16.4751 62.6732 15.3775 62.6732Z" fill="#827868"/>
<path d="M120.479 316.16C119.773 316.16 119.146 315.611 119.106 314.865C118.95 312.235 118.754 309.644 118.558 307.092L118.401 305.09C118.362 304.344 118.91 303.676 119.655 303.637C120.4 303.598 121.067 304.147 121.106 304.893L121.263 306.896C121.459 309.447 121.655 312.038 121.811 314.708C121.851 315.454 121.302 316.121 120.518 316.16C120.557 316.16 120.518 316.16 120.479 316.16ZM119.224 296.571C118.479 296.571 117.891 295.982 117.852 295.236C117.774 293.548 117.734 292.017 117.734 290.603C117.734 288.641 117.813 286.913 117.93 285.264C117.97 284.518 118.636 283.93 119.42 284.008C120.165 284.047 120.753 284.715 120.675 285.5C120.557 287.07 120.479 288.719 120.479 290.603C120.479 291.978 120.518 293.469 120.557 295.157C120.596 295.903 120.008 296.571 119.224 296.571C119.263 296.571 119.224 296.571 119.224 296.571ZM121.419 277.256C121.223 277.256 121.027 277.216 120.871 277.138C120.165 276.824 119.891 275.999 120.204 275.332C121.302 272.898 122.831 270.974 124.712 269.6C125.496 269.012 126.516 268.462 127.692 267.952C128.397 267.638 129.181 267.991 129.495 268.658C129.809 269.365 129.456 270.15 128.789 270.464C127.809 270.896 126.986 271.328 126.32 271.799C124.791 272.937 123.576 274.468 122.674 276.471C122.439 276.942 121.929 277.256 121.419 277.256ZM137.688 267.952C137.022 267.952 136.473 267.481 136.356 266.813C136.238 266.067 136.708 265.361 137.453 265.204C140.315 264.693 143.647 264.222 147.293 263.829C148.038 263.751 148.704 264.301 148.783 265.047C148.861 265.792 148.312 266.46 147.567 266.538C144 266.892 140.746 267.363 137.963 267.873C137.845 267.952 137.767 267.952 137.688 267.952ZM157.211 265.871C156.506 265.871 155.878 265.321 155.839 264.575C155.8 263.829 156.388 263.162 157.133 263.123C161.837 262.848 165.601 262.77 167.012 262.77C167.012 262.77 167.012 262.77 167.051 262.77C167.796 262.77 168.423 263.358 168.423 264.104C168.423 264.85 167.835 265.478 167.09 265.518C165.718 265.557 161.994 265.596 157.329 265.871C157.25 265.871 157.211 265.871 157.211 265.871Z" fill="#827868"/>
<path d="M330.524 395.189C329.818 395.189 329.23 394.679 329.152 393.972C329.074 393.226 329.622 392.52 330.367 392.441C333.66 392.049 336.914 391.656 340.089 391.224C340.834 391.106 341.54 391.656 341.618 392.402C341.736 393.148 341.187 393.854 340.442 393.933C337.267 394.365 333.974 394.757 330.681 395.15C330.642 395.15 330.602 395.189 330.524 395.189ZM350.008 392.598C349.341 392.598 348.753 392.127 348.636 391.42C348.518 390.675 349.028 389.968 349.773 389.85C353.379 389.301 356.633 388.751 359.416 388.201C360.161 388.044 360.867 388.555 361.024 389.301C361.18 390.046 360.671 390.753 359.926 390.91C357.103 391.46 353.85 392.009 350.204 392.559C350.165 392.598 350.086 392.598 350.008 392.598ZM369.256 388.672C368.668 388.672 368.158 388.319 367.962 387.73C367.727 387.024 368.119 386.238 368.825 386.003C369.335 385.846 369.805 385.65 370.197 385.493C372.549 384.511 374.078 382.941 375.019 380.546C375.293 379.839 376.077 379.486 376.783 379.761C377.489 380.036 377.841 380.821 377.567 381.527C376.352 384.668 374.313 386.788 371.255 388.044C370.785 388.241 370.275 388.437 369.687 388.633C369.53 388.633 369.374 388.672 369.256 388.672ZM377.567 372.734C376.822 372.734 376.195 372.145 376.195 371.36C376.156 368.769 375.96 365.589 375.568 361.702C375.489 360.956 376.038 360.289 376.783 360.21C377.528 360.132 378.194 360.682 378.273 361.427C378.665 365.392 378.9 368.651 378.9 371.36C378.939 372.106 378.351 372.734 377.567 372.734ZM375.764 353.183C375.097 353.183 374.509 352.673 374.392 352.005C374 349.061 373.568 345.881 373.098 342.505L373.059 342.309C372.941 341.563 373.49 340.856 374.235 340.778C374.98 340.66 375.685 341.209 375.764 341.955L375.803 342.152C376.273 345.528 376.705 348.708 377.097 351.691C377.214 352.437 376.665 353.144 375.921 353.222C375.881 353.183 375.842 353.183 375.764 353.183Z" fill="#827868"/>
<path d="M158.58 422.236C154.856 422.197 151.523 422.001 148.622 421.648C147.877 421.569 147.329 420.862 147.446 420.116C147.525 419.371 148.23 418.821 148.975 418.939C151.759 419.292 154.973 419.488 158.58 419.528C159.325 419.528 159.952 420.156 159.952 420.902C159.952 421.608 159.325 422.236 158.58 422.236ZM168.341 421.922C167.636 421.922 167.008 421.373 166.969 420.627C166.93 419.881 167.518 419.214 168.263 419.174C170.419 419.057 172.732 418.86 175.162 418.664C175.907 418.585 176.574 419.174 176.652 419.92C176.73 420.666 176.142 421.333 175.398 421.412C172.967 421.648 170.615 421.805 168.42 421.922C168.42 421.922 168.38 421.922 168.341 421.922ZM139.371 419.214C139.175 419.214 138.979 419.174 138.822 419.096C135.215 417.486 132.667 415.209 131.02 412.108C130.668 411.44 130.903 410.616 131.569 410.263C132.236 409.909 133.059 410.145 133.412 410.812C134.784 413.325 136.901 415.209 139.919 416.583C140.625 416.897 140.939 417.722 140.625 418.389C140.39 418.899 139.88 419.214 139.371 419.214ZM129.805 403.393C129.1 403.393 128.511 402.843 128.433 402.136C128.237 399.859 128.159 397.465 128.08 394.913C128.041 394.049 128.041 393.146 128.002 392.243C127.963 391.497 128.551 390.83 129.335 390.83C130.08 390.791 130.746 391.38 130.746 392.165C130.785 393.068 130.785 393.971 130.824 394.834C130.903 397.347 130.981 399.702 131.138 401.901C131.216 402.647 130.628 403.314 129.884 403.393C129.884 403.393 129.844 403.393 129.805 403.393Z" fill="#827868"/>
</svg>
