<svg width="87" height="87" viewBox="0 0 87 87" fill="none" xmlns="http://www.w3.org/2000/svg">
<path d="M65.2012 64.7142C77.0952 52.8005 77.0952 33.4846 65.2013 21.5709C53.3074 9.65724 34.0235 9.65726 22.1296 21.5709C10.2357 33.4846 10.2357 52.8005 22.1296 64.7142C34.0235 76.6279 53.3073 76.6279 65.2012 64.7142Z" fill="#F6B40C"/>
<path d="M49.123 51.4392C48.4958 53.0488 47.5942 54.2265 46.4965 54.9724C45.3988 55.7183 43.9875 55.9931 42.3018 55.8361L40.6161 60.076C40.5769 60.1937 40.4985 60.2723 40.3809 60.3508C40.2633 60.39 40.1457 60.39 40.0281 60.3508L34.4613 58.1131C34.3437 58.0738 34.2653 57.9953 34.1869 57.8775C34.1477 57.7597 34.1477 57.642 34.1869 57.5242L35.6766 53.7554C34.6573 53.2843 33.7165 52.8525 32.9324 52.3814C32.8148 52.3421 32.7756 52.2244 32.7364 52.1066C32.6972 51.9888 32.6972 51.871 32.7364 51.7533L34.971 47.4349C35.0494 47.3171 35.1278 47.2386 35.2846 47.1993C35.4414 47.1601 35.559 47.1993 35.6766 47.2779C35.9902 47.4741 36.3038 47.7097 36.6567 47.906C37.0095 48.1023 37.4407 48.3771 37.9895 48.6519C38.5384 48.966 39.048 49.2015 39.5576 49.3978C40.1065 49.6333 40.5769 49.7511 41.0082 49.7511C41.4394 49.7511 41.7922 49.6726 42.0274 49.5156C42.2626 49.3585 42.4586 49.2015 42.5763 49.0445C42.6939 48.8874 42.8115 48.7304 42.8507 48.6126C42.9291 48.4556 42.9291 48.2593 42.9683 48.063C42.9683 47.8667 42.9683 47.5919 42.8898 47.2386C42.8114 46.8853 42.6154 46.4927 42.3018 46.0609C41.949 45.629 41.5178 45.1972 40.9297 44.8046C40.2633 44.3335 39.7144 43.7839 39.2048 43.1165C38.6952 42.4491 38.3032 41.7032 37.9504 40.8788C37.6367 40.0544 37.4799 39.1122 37.4799 38.0915C37.4799 37.0708 37.7151 36.0108 38.1072 34.9508C38.6952 33.459 39.5576 32.3598 40.7337 31.6532C41.8706 30.9465 43.2819 30.6325 44.8892 30.711L46.6141 26.3533C46.6533 26.2356 46.7317 26.1571 46.8885 26.0785C47.0061 26.0393 47.1237 26 47.2413 26.0785L52.8081 28.3162C52.9257 28.3555 53.0041 28.4733 53.0825 28.591C53.1217 28.7088 53.1217 28.8659 53.0825 28.9836L51.5928 32.7524C52.5729 33.1842 53.5137 33.6553 54.4546 34.1657C54.5722 34.2049 54.6114 34.3227 54.6898 34.4405C54.729 34.5583 54.729 34.676 54.6506 34.7938L52.4161 39.1122C52.3377 39.23 52.2592 39.3085 52.1024 39.3477C51.9456 39.387 51.828 39.387 51.7104 39.3085C50.2991 38.3663 48.9662 37.6204 47.7118 37.11C47.2021 36.8745 46.7317 36.7567 46.3005 36.7567C45.8693 36.7567 45.5164 36.8352 45.2812 36.9923C45.046 37.1493 44.85 37.3063 44.6931 37.4634C44.5755 37.6204 44.458 37.7774 44.4188 37.8952C44.3795 38.0522 44.3403 38.2093 44.3011 38.4055C44.3011 38.6018 44.3012 38.8766 44.3796 39.23C44.458 39.5833 44.654 39.9759 45.0068 40.4077C45.3596 40.8395 45.7908 41.2714 46.3789 41.664C47.0061 42.1351 47.5942 42.6847 48.1038 43.3521C48.6134 44.0194 49.0446 44.7653 49.3582 45.5898C49.6719 46.4142 49.8287 47.3564 49.8287 48.3771C49.7503 49.3585 49.5151 50.3792 49.123 51.4392Z" fill="#202D37"/>
<path d="M40.1847 60.9395C40.0671 60.9395 39.9103 60.9002 39.7927 60.8609L34.226 58.6232C33.9516 58.5055 33.7556 58.3092 33.6379 58.0736C33.5203 57.7988 33.5203 57.524 33.6379 57.2492L34.9316 53.9908C34.1084 53.5982 33.3243 53.2056 32.6579 52.8523C32.4227 52.7345 32.2659 52.499 32.1874 52.2634C32.109 52.0279 32.1091 51.7531 32.2267 51.4783C32.2267 51.4783 32.2267 51.439 32.2659 51.439L34.5004 47.1206C34.6572 46.8458 34.8924 46.6495 35.206 46.571C35.5197 46.4925 35.7941 46.571 36.0685 46.7281C36.3821 46.9243 36.6957 47.1599 37.0093 47.3562C37.323 47.5525 37.7542 47.788 38.303 48.1021C38.8127 48.3769 39.3223 48.6124 39.7927 48.8087C40.2631 49.005 40.6944 49.1228 41.0472 49.1228C41.4392 49.1228 41.6352 49.0443 41.7136 48.9658C41.9096 48.848 42.0664 48.691 42.1449 48.6124C42.2625 48.4947 42.3017 48.3769 42.3409 48.3376C42.3801 48.2591 42.4193 48.1413 42.4193 47.9843C42.4193 47.8665 42.4193 47.6703 42.3409 47.2777C42.3017 47.1206 42.1841 46.8066 41.8313 46.3355C41.5176 45.9429 41.1256 45.5503 40.616 45.197C39.9104 44.7259 39.2831 44.0978 38.7343 43.3911C38.1854 42.6845 37.7542 41.8993 37.4014 40.9964C37.0485 40.0935 36.8526 39.0727 36.8918 37.9735C36.8918 36.8743 37.127 35.7358 37.5974 34.6366C38.2246 33.027 39.2047 31.8493 40.4592 31.0641C41.596 30.3575 42.9681 30.0041 44.5362 30.0041L46.1043 26.0391C46.2219 25.7643 46.3787 25.568 46.6531 25.4502C46.9275 25.3324 47.202 25.2932 47.4764 25.411L53.0431 27.6487C53.3176 27.7664 53.5136 27.9627 53.6312 28.2375C53.7488 28.5123 53.7488 28.7871 53.6312 29.0619L52.3375 32.3204C53.1607 32.7129 53.9448 33.1055 54.7289 33.4981C54.9641 33.6159 55.1209 33.8514 55.2385 34.087C55.3561 34.3618 55.3169 34.6758 55.1601 34.9506L52.9255 39.269C52.7687 39.5438 52.5335 39.7009 52.2591 39.8187C51.9455 39.8972 51.6318 39.8579 51.3574 39.6616C49.9853 38.7587 48.6917 38.0128 47.4764 37.5024C47.006 37.3061 46.6139 37.1884 46.2611 37.1884C45.9475 37.1884 45.7123 37.2276 45.5555 37.3454C45.2811 37.5024 45.1634 37.6202 45.085 37.6987C45.0066 37.7772 44.9282 37.895 44.889 37.9735C44.8498 38.0128 44.8498 38.1305 44.8106 38.3268C44.8106 38.4446 44.8106 38.6409 44.889 38.9942C44.9282 39.269 45.1243 39.5831 45.3987 39.9364C45.7123 40.329 46.1043 40.7216 46.6139 41.0749C47.2804 41.5853 47.9076 42.1741 48.4565 42.8808C49.0053 43.5874 49.4365 44.3726 49.7893 45.2755C50.1421 46.1784 50.299 47.1991 50.299 48.2984C50.299 49.3976 50.0637 50.4968 49.5933 51.6353C48.8877 53.3627 47.9468 54.6189 46.7708 55.4433C45.6731 56.1892 44.2618 56.5033 42.6153 56.4248L41.0864 60.2721C40.9688 60.5469 40.7728 60.7432 40.5376 60.8609C40.4592 60.9002 40.3023 60.9395 40.1847 60.9395ZM34.7356 57.5633L40.1063 59.7225L41.7528 55.6004C41.8312 55.3648 42.1056 55.2078 42.3409 55.247C43.909 55.4041 45.2027 55.1293 46.1827 54.5011C47.1628 53.8338 47.986 52.7345 48.5741 51.2427C48.9661 50.2613 49.1621 49.2798 49.2013 48.3376C49.2013 47.3954 49.0837 46.5318 48.7701 45.7466C48.4565 44.9614 48.0644 44.2548 47.594 43.6659C47.1236 43.0378 46.5747 42.5274 45.9867 42.0956C45.3987 41.6638 44.889 41.1927 44.497 40.7216C44.105 40.2112 43.8698 39.7401 43.7914 39.3083C43.713 38.9157 43.6738 38.5624 43.6738 38.3268C43.6738 38.052 43.7522 37.8165 43.8306 37.6202C43.909 37.3847 44.0658 37.1884 44.2226 36.9921C44.3794 36.7958 44.6146 36.6387 44.9283 36.4425C45.2811 36.2069 45.7515 36.0891 46.3003 36.0891C46.81 36.0891 47.3588 36.2069 47.9468 36.4817C49.2013 36.9921 50.5342 37.738 51.9455 38.6802L54.0624 34.5581C53.1999 34.087 52.2591 33.6551 51.3182 33.2233C51.0438 33.1055 50.887 32.7522 51.0046 32.4774L52.4551 28.7871L47.0452 26.628L45.3595 30.9071C45.2811 31.1426 45.0459 31.2997 44.7714 31.2604C43.2818 31.1819 41.988 31.4959 40.9688 32.1241C39.9103 32.7522 39.1263 33.7729 38.5774 35.1077C38.1854 36.0891 37.9894 37.0706 37.9894 38.0128C37.9894 38.955 38.107 39.8187 38.4206 40.6038C38.7342 41.389 39.1263 42.0956 39.5967 42.7237C40.0671 43.3519 40.616 43.8622 41.204 44.2941C41.8313 44.7259 42.3409 45.197 42.6937 45.6681C43.0857 46.1784 43.321 46.6495 43.3994 47.0814C43.4778 47.474 43.5169 47.788 43.4777 48.0628C43.4777 48.3376 43.3993 48.5732 43.3209 48.8087C43.2425 49.005 43.1249 49.2013 42.9289 49.3976C42.7721 49.5939 42.5369 49.7902 42.2625 49.9865C41.9097 50.222 41.4392 50.3398 40.9296 50.3398C40.42 50.3398 39.8711 50.1828 39.2439 49.9472C38.7343 49.7509 38.1854 49.4761 37.6366 49.1621C37.0877 48.848 36.6173 48.6124 36.2645 48.3769C35.9509 48.1806 35.6373 47.9843 35.3629 47.788L33.2459 51.9101C33.9908 52.342 34.8924 52.7738 35.8725 53.2056C36.1469 53.3234 36.3037 53.6767 36.1861 53.9515L34.7356 57.5633Z" fill="#202D37"/>
</svg>
