<svg width="28" height="28" viewBox="0 0 28 28" fill="none" xmlns="http://www.w3.org/2000/svg">
<path d="M18.2813 0.666104H9.66797C7.2821 0.669631 4.99497 1.61898 3.3079 3.30604C1.62084 4.9931 0.671496 7.28024 0.667969 9.66611V18.3328C0.671496 20.7186 1.62084 23.0058 3.3079 24.6928C4.99497 26.3799 7.2821 27.3292 9.66797 27.3328H18.3346C20.7205 27.3292 23.0076 26.3799 24.6947 24.6928C26.3818 23.0058 27.3311 20.7186 27.3346 18.3328V9.66611C27.3329 8.48021 27.0971 7.30631 26.6409 6.21169C26.1846 5.11706 25.5169 4.12324 24.6758 3.28716C23.8348 2.45108 22.8371 1.78919 21.7398 1.33942C20.6425 0.88965 19.4672 0.66084 18.2813 0.666104ZM20.8013 14.9194H20.6146C20.3799 14.9173 20.1531 14.8337 19.9732 14.6829C19.7932 14.5321 19.6712 14.3235 19.628 14.0928L19.388 12.7594L17.6413 15.4261C17.3122 15.9159 16.806 16.2591 16.2291 16.3834C15.6522 16.5078 15.0496 16.4036 14.548 16.0928L11.5213 14.1728C11.4655 14.1512 11.4037 14.1512 11.348 14.1728C11.2784 14.184 11.216 14.2224 11.1746 14.2794L8.0813 18.3994C7.98677 18.5221 7.86569 18.6219 7.72715 18.6911C7.58861 18.7604 7.43618 18.7974 7.2813 18.7994C7.06477 18.8004 6.85394 18.7301 6.6813 18.5994C6.48768 18.4422 6.35981 18.2182 6.32281 17.9715C6.28581 17.7249 6.34234 17.4733 6.4813 17.2661L9.57464 13.1461C9.91516 12.6963 10.4103 12.3888 10.9644 12.2829C11.5186 12.177 12.0923 12.2803 12.5746 12.5728L15.6146 14.4928C15.6767 14.5236 15.7475 14.5325 15.8153 14.518C15.8831 14.5034 15.9439 14.4664 15.988 14.4128L17.7746 11.7461L16.3346 11.9461C16.2051 11.9706 16.0719 11.9694 15.9428 11.9424C15.8138 11.9155 15.6912 11.8634 15.5823 11.7891C15.4733 11.7148 15.3801 11.6198 15.3078 11.5095C15.2356 11.3991 15.1858 11.2757 15.1613 11.1461C15.1368 11.0165 15.138 10.8834 15.165 10.7543C15.1919 10.6252 15.244 10.5027 15.3183 10.3938C15.3926 10.2848 15.4876 10.1915 15.5979 10.1193C15.7083 10.0471 15.8317 9.99728 15.9613 9.97277L19.6413 9.29277H20.1213C20.1558 9.28057 20.1935 9.28057 20.228 9.29277L20.428 9.39944L20.628 9.55944C20.676 9.61722 20.716 9.67944 20.748 9.74611C20.7853 9.80799 20.8123 9.87554 20.828 9.94611L21.5213 13.6794C21.5574 13.8082 21.5673 13.9428 21.5505 14.0754C21.5336 14.208 21.4903 14.3359 21.4232 14.4515C21.3561 14.5671 21.2665 14.6681 21.1596 14.7485C21.0528 14.8288 20.931 14.887 20.8013 14.9194Z" fill="#AC2DB5"/>
</svg>
