<svg width="24" height="28" viewBox="0 0 24 28" fill="none" xmlns="http://www.w3.org/2000/svg">
<path fill-rule="evenodd" clip-rule="evenodd" d="M4 8.66602C4 6.54428 4.84285 4.50945 6.34315 3.00916C7.84344 1.50887 9.87827 0.666016 12 0.666016C14.1217 0.666016 16.1566 1.50887 17.6569 3.00916C19.1571 4.50945 20 6.54428 20 8.66602H21.3333C22.0406 8.66602 22.7189 8.94697 23.219 9.44706C23.719 9.94716 24 10.6254 24 11.3327V24.666C24 25.3733 23.719 26.0515 23.219 26.5516C22.7189 27.0517 22.0406 27.3327 21.3333 27.3327H2.66667C1.95942 27.3327 1.28115 27.0517 0.781048 26.5516C0.280951 26.0515 0 25.3733 0 24.666V11.3327C0 10.6254 0.280951 9.94716 0.781048 9.44706C1.28115 8.94697 1.95942 8.66602 2.66667 8.66602H4ZM12 3.33268C13.4145 3.33268 14.771 3.89459 15.7712 4.89478C16.7714 5.89497 17.3333 7.25153 17.3333 8.66602H6.66667C6.66667 7.25153 7.22857 5.89497 8.22876 4.89478C9.22896 3.89459 10.5855 3.33268 12 3.33268ZM14.6667 16.666C14.6667 17.1341 14.5434 17.5939 14.3094 17.9993C14.0753 18.4047 13.7387 18.7413 13.3333 18.9753V20.666C13.3333 21.0196 13.1929 21.3588 12.9428 21.6088C12.6928 21.8589 12.3536 21.9993 12 21.9993C11.6464 21.9993 11.3072 21.8589 11.0572 21.6088C10.8071 21.3588 10.6667 21.0196 10.6667 20.666V18.9753C10.1583 18.6818 9.76103 18.2288 9.53641 17.6864C9.31179 17.1441 9.27239 16.5428 9.42432 15.9758C9.57625 15.4088 9.91102 14.9078 10.3767 14.5504C10.8424 14.1931 11.413 13.9994 12 13.9993C12.7072 13.9993 13.3855 14.2803 13.8856 14.7804C14.3857 15.2805 14.6667 15.9588 14.6667 16.666Z" fill="#01321D"/>
</svg>
