<svg width="578" height="492" viewBox="0 0 578 492" fill="none" xmlns="http://www.w3.org/2000/svg">
<path d="M68.2012 64.7142C80.0952 52.8005 80.0952 33.4846 68.2013 21.5709C56.3074 9.65724 37.0235 9.65726 25.1296 21.5709C13.2357 33.4846 13.2357 52.8005 25.1296 64.7142C37.0235 76.6279 56.3073 76.6279 68.2012 64.7142Z" fill="#F6B40C"/>
<path d="M480.754 274.313C477.696 289.271 472.247 303.6 464.837 316.987C415.286 406.613 279.488 455.057 210.649 381.527C200.77 370.967 192.263 360.014 185.05 348.786C161.45 311.962 152.002 272.311 154.942 234.741C157.334 204.199 167.918 175.069 185.716 149.983C192.773 140.012 201.005 130.668 210.335 122.149C338.527 4.6109 504.158 159.209 480.754 274.313Z" fill="#F6B40C"/>
<path d="M464.84 316.989C415.288 406.615 279.491 455.059 210.651 381.529C200.772 370.968 192.266 360.015 185.052 348.788C184.896 346.432 184.778 343.998 184.66 341.486C183.406 317.892 183.327 305.564 208.809 303.798C215.042 303.366 224.804 302.542 236.604 301.521C238.72 298.066 245.777 286.289 251.422 274.119C245.816 273.412 186.62 265.561 166.862 248.287C162.864 244.793 158.826 240.082 154.945 234.704C138.637 212.248 124.367 178.29 122.368 173.147C120.251 167.73 120.055 163.45 121.27 155.442C120.368 156.502 112.332 145.941 113.508 142.212C115.468 136.127 134.599 123.368 145.262 122.112C147.144 121.876 152.475 131.18 151.26 131.416C157.924 132.28 171.214 135.499 174.232 138.993C175.565 140.524 180.309 144.764 185.68 149.985C194.382 158.386 204.693 169.339 204.85 175.463C205.124 185.396 206.614 185.278 209.671 185.553C212.768 185.828 215.317 187.319 215.042 190.931C214.768 194.582 215.317 197.409 221.511 196.427C227.705 195.485 231.86 196.545 233.075 201.688C234.291 206.791 251.226 206.948 257.655 207.066C264.084 207.184 296.779 209.736 300.621 212.052C302.934 189.989 311.755 155.049 311.755 155.049C311.755 155.049 284.862 146.098 285.254 141.78C285.489 139.346 307.011 130.984 321.046 125.802C321.242 125.724 329.709 126.744 334.257 124.86C334.257 124.86 326.769 145.353 350.8 153.675C350.8 153.675 351.114 157.68 352.839 157.915C354.015 158.072 355.779 157.13 356.563 153.4C356.916 151.712 357.073 149.435 356.916 146.452C356.916 146.452 357.073 146.452 357.386 146.452H357.425C361.385 146.491 365.109 146.884 368.206 147.551C372.518 148.493 375.537 150.064 376.164 152.144C377.144 155.324 374.753 159.054 365.148 160.506C361.542 171.459 362.09 181.038 365.54 181.548C369.343 182.137 370.793 180.881 372.636 179.546C374.478 178.212 375.929 185.003 368.206 190.146C362.169 194.15 354.603 195.681 348.683 191.756C347.194 202.394 345.586 214.368 344.371 225.282C347.115 225.321 387.415 251.035 398.314 256.806C405.37 260.575 419.483 269.212 430.185 281.578C453.471 280.282 460.253 282.049 462.762 300.225C463.35 303.68 464.056 309.569 464.84 316.989Z" fill="#F9DEC4"/>
<path d="M318.612 145.117C317.789 144.764 317.436 143.782 317.789 142.997L319.474 139.228C319.827 138.404 320.807 138.051 321.591 138.404C322.414 138.757 322.767 139.739 322.414 140.524L320.729 144.293C320.415 145.117 319.435 145.51 318.612 145.117Z" fill="#202D37"/>
<path d="M328.491 149.592C327.667 149.238 327.315 148.257 327.667 147.472L329.353 143.703C329.706 142.879 330.686 142.525 331.47 142.879C332.293 143.232 332.646 144.213 332.293 144.999L330.608 148.767C330.255 149.592 329.314 149.945 328.491 149.592Z" fill="#202D37"/>
<path d="M52.123 51.4392C51.4958 53.0488 50.5942 54.2265 49.4965 54.9724C48.3988 55.7183 46.9875 55.9931 45.3018 55.8361L43.6161 60.076C43.5769 60.1937 43.4985 60.2723 43.3809 60.3508C43.2633 60.39 43.1457 60.39 43.0281 60.3508L37.4613 58.1131C37.3437 58.0738 37.2653 57.9953 37.1869 57.8775C37.1477 57.7597 37.1477 57.642 37.1869 57.5242L38.6766 53.7554C37.6573 53.2843 36.7165 52.8525 35.9324 52.3814C35.8148 52.3421 35.7756 52.2244 35.7364 52.1066C35.6972 51.9888 35.6972 51.871 35.7364 51.7533L37.971 47.4349C38.0494 47.3171 38.1278 47.2386 38.2846 47.1993C38.4414 47.1601 38.559 47.1993 38.6766 47.2779C38.9902 47.4741 39.3038 47.7097 39.6567 47.906C40.0095 48.1023 40.4407 48.3771 40.9895 48.6519C41.5384 48.966 42.048 49.2015 42.5576 49.3978C43.1065 49.6333 43.5769 49.7511 44.0082 49.7511C44.4394 49.7511 44.7922 49.6726 45.0274 49.5156C45.2626 49.3585 45.4586 49.2015 45.5763 49.0445C45.6939 48.8874 45.8115 48.7304 45.8507 48.6126C45.9291 48.4556 45.9291 48.2593 45.9683 48.063C45.9683 47.8667 45.9683 47.5919 45.8898 47.2386C45.8114 46.8853 45.6154 46.4927 45.3018 46.0609C44.949 45.629 44.5178 45.1972 43.9297 44.8046C43.2633 44.3335 42.7144 43.7839 42.2048 43.1165C41.6952 42.4491 41.3032 41.7032 40.9504 40.8788C40.6367 40.0544 40.4799 39.1122 40.4799 38.0915C40.4799 37.0708 40.7151 36.0108 41.1072 34.9508C41.6952 33.459 42.5576 32.3598 43.7337 31.6532C44.8706 30.9465 46.2819 30.6325 47.8892 30.711L49.6141 26.3533C49.6533 26.2356 49.7317 26.1571 49.8885 26.0785C50.0061 26.0393 50.1237 26 50.2413 26.0785L55.8081 28.3162C55.9257 28.3555 56.0041 28.4733 56.0825 28.591C56.1217 28.7088 56.1217 28.8659 56.0825 28.9836L54.5928 32.7524C55.5729 33.1842 56.5137 33.6553 57.4546 34.1657C57.5722 34.2049 57.6114 34.3227 57.6898 34.4405C57.729 34.5583 57.729 34.676 57.6506 34.7938L55.4161 39.1122C55.3377 39.23 55.2592 39.3085 55.1024 39.3477C54.9456 39.387 54.828 39.387 54.7104 39.3085C53.2991 38.3663 51.9662 37.6204 50.7118 37.11C50.2021 36.8745 49.7317 36.7567 49.3005 36.7567C48.8693 36.7567 48.5164 36.8352 48.2812 36.9923C48.046 37.1493 47.85 37.3063 47.6931 37.4634C47.5755 37.6204 47.458 37.7774 47.4188 37.8952C47.3795 38.0522 47.3403 38.2093 47.3011 38.4055C47.3011 38.6018 47.3012 38.8766 47.3796 39.23C47.458 39.5833 47.654 39.9759 48.0068 40.4077C48.3596 40.8395 48.7908 41.2714 49.3789 41.664C50.0061 42.1351 50.5942 42.6847 51.1038 43.3521C51.6134 44.0194 52.0446 44.7653 52.3582 45.5898C52.6719 46.4142 52.8287 47.3564 52.8287 48.3771C52.7503 49.3585 52.5151 50.3792 52.123 51.4392Z" fill="#202D37"/>
<path d="M43.1847 60.9395C43.0671 60.9395 42.9103 60.9002 42.7927 60.8609L37.226 58.6232C36.9516 58.5055 36.7556 58.3092 36.6379 58.0736C36.5203 57.7988 36.5203 57.524 36.6379 57.2492L37.9316 53.9908C37.1084 53.5982 36.3243 53.2056 35.6579 52.8523C35.4227 52.7345 35.2659 52.499 35.1874 52.2634C35.109 52.0279 35.1091 51.7531 35.2267 51.4783C35.2267 51.4783 35.2267 51.439 35.2659 51.439L37.5004 47.1206C37.6572 46.8458 37.8924 46.6495 38.206 46.571C38.5197 46.4925 38.7941 46.571 39.0685 46.7281C39.3821 46.9243 39.6957 47.1599 40.0093 47.3562C40.323 47.5525 40.7542 47.788 41.303 48.1021C41.8127 48.3769 42.3223 48.6124 42.7927 48.8087C43.2631 49.005 43.6944 49.1228 44.0472 49.1228C44.4392 49.1228 44.6352 49.0443 44.7136 48.9658C44.9096 48.848 45.0664 48.691 45.1449 48.6124C45.2625 48.4947 45.3017 48.3769 45.3409 48.3376C45.3801 48.2591 45.4193 48.1413 45.4193 47.9843C45.4193 47.8665 45.4193 47.6703 45.3409 47.2777C45.3017 47.1206 45.1841 46.8066 44.8313 46.3355C44.5176 45.9429 44.1256 45.5503 43.616 45.197C42.9104 44.7259 42.2831 44.0978 41.7343 43.3911C41.1854 42.6845 40.7542 41.8993 40.4014 40.9964C40.0485 40.0935 39.8526 39.0727 39.8918 37.9735C39.8918 36.8743 40.127 35.7358 40.5974 34.6366C41.2246 33.027 42.2047 31.8493 43.4592 31.0641C44.596 30.3575 45.9681 30.0041 47.5362 30.0041L49.1043 26.0391C49.2219 25.7643 49.3787 25.568 49.6531 25.4502C49.9275 25.3324 50.202 25.2932 50.4764 25.411L56.0431 27.6487C56.3176 27.7664 56.5136 27.9627 56.6312 28.2375C56.7488 28.5123 56.7488 28.7871 56.6312 29.0619L55.3375 32.3204C56.1607 32.7129 56.9448 33.1055 57.7289 33.4981C57.9641 33.6159 58.1209 33.8514 58.2385 34.087C58.3561 34.3618 58.3169 34.6758 58.1601 34.9506L55.9255 39.269C55.7687 39.5438 55.5335 39.7009 55.2591 39.8187C54.9455 39.8972 54.6318 39.8579 54.3574 39.6616C52.9853 38.7587 51.6917 38.0128 50.4764 37.5024C50.006 37.3061 49.6139 37.1884 49.2611 37.1884C48.9475 37.1884 48.7123 37.2276 48.5555 37.3454C48.2811 37.5024 48.1634 37.6202 48.085 37.6987C48.0066 37.7772 47.9282 37.895 47.889 37.9735C47.8498 38.0128 47.8498 38.1305 47.8106 38.3268C47.8106 38.4446 47.8106 38.6409 47.889 38.9942C47.9282 39.269 48.1243 39.5831 48.3987 39.9364C48.7123 40.329 49.1043 40.7216 49.6139 41.0749C50.2804 41.5853 50.9076 42.1741 51.4565 42.8808C52.0053 43.5874 52.4365 44.3726 52.7893 45.2755C53.1421 46.1784 53.299 47.1991 53.299 48.2984C53.299 49.3976 53.0637 50.4968 52.5933 51.6353C51.8877 53.3627 50.9468 54.6189 49.7708 55.4433C48.6731 56.1892 47.2618 56.5033 45.6153 56.4248L44.0864 60.2721C43.9688 60.5469 43.7728 60.7432 43.5376 60.8609C43.4592 60.9002 43.3023 60.9395 43.1847 60.9395ZM37.7356 57.5633L43.1063 59.7225L44.7528 55.6004C44.8312 55.3648 45.1056 55.2078 45.3409 55.247C46.909 55.4041 48.2027 55.1293 49.1827 54.5011C50.1628 53.8338 50.986 52.7345 51.5741 51.2427C51.9661 50.2613 52.1621 49.2798 52.2013 48.3376C52.2013 47.3954 52.0837 46.5318 51.7701 45.7466C51.4565 44.9614 51.0644 44.2548 50.594 43.6659C50.1236 43.0378 49.5747 42.5274 48.9867 42.0956C48.3987 41.6638 47.889 41.1927 47.497 40.7216C47.105 40.2112 46.8698 39.7401 46.7914 39.3083C46.713 38.9157 46.6738 38.5624 46.6738 38.3268C46.6738 38.052 46.7522 37.8165 46.8306 37.6202C46.909 37.3847 47.0658 37.1884 47.2226 36.9921C47.3794 36.7958 47.6146 36.6387 47.9283 36.4425C48.2811 36.2069 48.7515 36.0891 49.3003 36.0891C49.81 36.0891 50.3588 36.2069 50.9468 36.4817C52.2013 36.9921 53.5342 37.738 54.9455 38.6802L57.0624 34.5581C56.1999 34.087 55.2591 33.6551 54.3182 33.2233C54.0438 33.1055 53.887 32.7522 54.0046 32.4774L55.4551 28.7871L50.0452 26.628L48.3595 30.9071C48.2811 31.1426 48.0459 31.2997 47.7714 31.2604C46.2818 31.1819 44.988 31.4959 43.9688 32.1241C42.9103 32.7522 42.1263 33.7729 41.5774 35.1077C41.1854 36.0891 40.9894 37.0706 40.9894 38.0128C40.9894 38.955 41.107 39.8187 41.4206 40.6038C41.7342 41.389 42.1263 42.0956 42.5967 42.7237C43.0671 43.3519 43.616 43.8622 44.204 44.2941C44.8313 44.7259 45.3409 45.197 45.6937 45.6681C46.0857 46.1784 46.321 46.6495 46.3994 47.0814C46.4778 47.474 46.5169 47.788 46.4777 48.0628C46.4777 48.3376 46.3993 48.5732 46.3209 48.8087C46.2425 49.005 46.1249 49.2013 45.9289 49.3976C45.7721 49.5939 45.5369 49.7902 45.2625 49.9865C44.9097 50.222 44.4392 50.3398 43.9296 50.3398C43.42 50.3398 42.8711 50.1828 42.2439 49.9472C41.7343 49.7509 41.1854 49.4761 40.6366 49.1621C40.0877 48.848 39.6173 48.6124 39.2645 48.3769C38.9509 48.1806 38.6373 47.9843 38.3629 47.788L36.2459 51.9101C36.9908 52.342 37.8924 52.7738 38.8725 53.2056C39.1469 53.3234 39.3037 53.6767 39.1861 53.9515L37.7356 57.5633Z" fill="#202D37"/>
<path d="M439.965 75.6063C440.435 76.3522 440.631 77.0588 440.592 77.7262C440.553 78.3936 440.239 79.061 439.69 79.6891L440.906 81.652C440.945 81.6913 440.945 81.7698 440.945 81.8483C440.945 81.9268 440.906 81.9661 440.827 82.0054L438.24 83.6149C438.201 83.6542 438.122 83.6542 438.044 83.6542C437.965 83.6542 437.926 83.6149 437.887 83.5364L436.828 81.8091C436.319 82.0839 435.888 82.3194 435.456 82.5157C435.417 82.555 435.339 82.555 435.3 82.5157C435.221 82.4764 435.182 82.4372 435.143 82.3979L434.084 80.1995C434.045 80.121 434.045 80.0817 434.084 80.0032C434.123 79.9247 434.163 79.8854 434.241 79.8854C434.437 79.8069 434.594 79.7676 434.79 79.6891C434.986 79.6106 435.221 79.4928 435.496 79.3751C435.77 79.2573 436.044 79.1003 436.28 78.9825C436.515 78.8254 436.711 78.6684 436.868 78.5114C436.985 78.3543 437.064 78.1581 437.064 78.0403C437.064 77.8833 437.064 77.7655 437.024 77.687C436.985 77.5692 436.985 77.4907 436.946 77.4514C436.907 77.3729 436.828 77.2944 436.75 77.2551C436.672 77.1766 436.554 77.0981 436.397 77.0196C436.24 76.9411 436.005 76.9018 435.731 76.9018C435.456 76.9018 435.143 76.9803 434.829 77.0589C434.437 77.1766 434.045 77.2551 433.614 77.2551C433.183 77.2551 432.751 77.2159 432.32 77.0981C431.889 76.9803 431.458 76.784 431.066 76.4307C430.634 76.1166 430.282 75.7241 430.007 75.2137C429.576 74.5463 429.419 73.8397 429.458 73.1723C429.537 72.5049 429.811 71.8375 430.321 71.2094L429.106 69.2073C429.066 69.168 429.066 69.0895 429.066 69.011C429.066 68.9324 429.106 68.8932 429.184 68.8539L431.771 67.2444C431.811 67.2051 431.889 67.2051 431.967 67.2051C432.046 67.2051 432.085 67.2443 432.124 67.3228L433.183 69.0502C433.653 68.7754 434.124 68.5398 434.594 68.3043C434.633 68.265 434.712 68.265 434.79 68.3043C434.868 68.3043 434.908 68.3436 434.947 68.4221L436.005 70.6205C436.044 70.699 436.044 70.7383 436.005 70.8168C435.966 70.8953 435.927 70.9346 435.888 70.9346C435.064 71.2094 434.359 71.5235 433.771 71.8768C433.535 72.0338 433.339 72.1909 433.222 72.3479C433.104 72.5049 433.026 72.7012 433.026 72.8582C433.026 73.0153 433.026 73.133 433.026 73.2115C433.065 73.2901 433.065 73.4079 433.104 73.4471C433.143 73.5256 433.222 73.5649 433.3 73.6434C433.379 73.7219 433.496 73.8004 433.653 73.8397C433.81 73.9182 434.045 73.9575 434.319 73.9575C434.594 73.9575 434.908 73.8789 435.221 73.8004C435.613 73.6826 436.005 73.6041 436.436 73.6041C436.868 73.6041 437.299 73.6434 437.73 73.7612C438.161 73.8789 438.593 74.1145 438.985 74.4286C439.337 74.7426 439.69 75.1352 439.965 75.6063Z" fill="#827868"/>
<path d="M438.124 84.1652C438.045 84.1652 438.006 84.1652 437.928 84.126C437.732 84.0867 437.536 83.9297 437.418 83.7334L436.634 82.4771C436.32 82.6341 436.007 82.7912 435.693 82.9482C435.497 83.0267 435.301 83.0267 435.105 82.9875C434.909 82.9089 434.752 82.7912 434.635 82.6341C434.635 82.6341 434.635 82.5949 434.596 82.5949L433.537 80.3964C433.419 80.1609 433.419 79.9253 433.498 79.7291C433.576 79.4935 433.772 79.3365 434.008 79.258C434.164 79.2187 434.36 79.1402 434.517 79.0617C434.713 78.9831 434.909 78.9046 435.184 78.7476C435.458 78.6298 435.693 78.5121 435.889 78.355C436.085 78.2372 436.242 78.1195 436.32 78.0017C436.399 77.8839 436.399 77.8447 436.399 77.8447C436.399 77.7269 436.399 77.6484 436.399 77.6484C436.399 77.6091 436.36 77.5699 436.36 77.5699C436.36 77.5699 436.36 77.5306 436.281 77.4913C436.281 77.4913 436.203 77.4128 436.046 77.3343C436.007 77.3343 435.928 77.2951 435.654 77.2951C435.419 77.2951 435.184 77.3343 434.909 77.4521C434.478 77.6091 434.007 77.6876 433.537 77.6876C433.067 77.6876 432.596 77.6091 432.087 77.4913C431.577 77.3736 431.067 77.0988 430.597 76.7454C430.126 76.3921 429.734 75.921 429.382 75.3714C428.911 74.5862 428.676 73.7618 428.754 72.9767C428.833 72.3093 429.068 71.6419 429.499 71.0138L428.48 69.3649C428.362 69.1686 428.323 68.9723 428.362 68.7761C428.402 68.5405 428.558 68.3442 428.754 68.2265L431.342 66.6169C431.538 66.4991 431.773 66.4598 431.969 66.4991C432.204 66.5384 432.361 66.6954 432.479 66.8524L433.263 68.1087C433.576 67.9516 433.89 67.7946 434.243 67.6376C434.439 67.5591 434.635 67.5591 434.831 67.5983C435.066 67.6768 435.262 67.8339 435.34 68.0302L436.399 70.2286C436.516 70.4249 436.516 70.6605 436.438 70.896C436.36 71.1315 436.164 71.3278 435.928 71.4063C435.184 71.6812 434.517 71.9952 433.968 72.3093C433.772 72.4271 433.655 72.5056 433.576 72.6233C433.498 72.7019 433.498 72.7804 433.498 72.7804C433.498 72.9374 433.498 72.9767 433.498 73.0159C433.498 73.0552 433.498 73.0552 433.537 73.0944C433.537 73.0944 433.537 73.1337 433.576 73.1337C433.576 73.1337 433.655 73.173 433.812 73.2515C433.851 73.2515 433.968 73.2907 434.204 73.2907C434.439 73.2907 434.674 73.2515 434.948 73.1337C435.38 73.0159 435.85 72.9374 436.32 72.8981C436.791 72.8981 437.301 72.9374 437.771 73.0944C438.281 73.2515 438.79 73.487 439.261 73.8404C439.731 74.1937 440.123 74.6648 440.476 75.2144C440.986 76.0781 441.221 76.9025 441.182 77.6876C441.142 78.355 440.868 79.0224 440.397 79.6505L441.378 81.2601C441.495 81.4564 441.534 81.6527 441.495 81.8882C441.456 82.1238 441.299 82.2808 441.142 82.3986L438.555 84.0082C438.398 84.1259 438.281 84.1652 438.124 84.1652ZM436.83 81.1423C437.026 81.1423 437.222 81.2601 437.34 81.4171L438.241 82.8697L440.241 81.6527L439.221 80.0039C439.104 79.7683 439.104 79.4935 439.3 79.2972C439.77 78.7476 440.045 78.2372 440.084 77.6876C440.123 77.138 439.927 76.5491 439.535 75.921C439.261 75.4892 438.986 75.1359 438.633 74.861C438.281 74.5862 437.928 74.39 437.575 74.3115C437.183 74.1937 436.83 74.1544 436.477 74.1544C436.124 74.1544 435.772 74.2329 435.419 74.3115C435.027 74.4292 434.674 74.5077 434.321 74.5077C433.968 74.5077 433.655 74.4685 433.419 74.3507C433.223 74.2329 433.027 74.1544 432.91 74.0366C432.792 73.9189 432.675 73.8011 432.596 73.6833C432.518 73.5655 432.439 73.4085 432.439 73.2515C432.4 73.0944 432.4 72.9374 432.4 72.7411C432.4 72.4663 432.518 72.1915 432.714 71.9167C432.91 71.6811 433.145 71.4849 433.459 71.2886C433.968 70.9745 434.596 70.6997 435.301 70.4249L434.556 68.8938C434.204 69.0509 433.811 69.2472 433.459 69.4434C433.184 69.6005 432.831 69.522 432.675 69.2472L431.773 67.7946L429.774 69.0116L430.832 70.739C430.95 70.9352 430.95 71.2101 430.793 71.4063C430.362 71.956 430.126 72.5056 430.048 73.0552C430.009 73.6048 430.126 74.1544 430.518 74.7433C430.793 75.1751 431.107 75.5284 431.459 75.8033C431.812 76.0781 432.165 76.2743 432.518 76.3528C432.91 76.4706 433.263 76.5099 433.655 76.5099C434.008 76.5099 434.36 76.4706 434.674 76.3528C435.066 76.2351 435.419 76.1566 435.772 76.1566C436.124 76.1566 436.438 76.1958 436.673 76.3136C436.869 76.4314 437.026 76.5099 437.144 76.6277C437.261 76.7454 437.379 76.8632 437.457 76.981C437.536 77.0988 437.575 77.2558 437.614 77.4128C437.653 77.5699 437.653 77.7269 437.653 77.9232C437.653 78.198 437.536 78.4728 437.34 78.7476C437.144 78.9831 436.908 79.1794 436.595 79.3757C436.36 79.5328 436.085 79.6505 435.772 79.8076C435.458 79.9253 435.223 80.0431 435.027 80.1216C434.948 80.1609 434.87 80.1609 434.831 80.2002L435.576 81.7705C435.889 81.6134 436.242 81.4171 436.595 81.2209C436.634 81.1816 436.752 81.1423 436.83 81.1423ZM435.615 70.3071C435.615 70.3464 435.615 70.3464 435.615 70.3071C435.615 70.3464 435.615 70.3464 435.615 70.3071Z" fill="#827868"/>
<path d="M434.398 95.2756C428.4 95.2756 420.795 91.1928 415.228 74.037C410.602 59.7078 394.059 29.6754 372.576 28.1444C371.988 28.1051 371.478 27.6733 371.321 27.0844C371.165 26.4955 371.439 25.9067 371.949 25.5926C373.321 24.7289 405.427 4.86437 413.738 2.66592C418.207 1.48818 423.147 3.33331 428.087 8.00501C432.673 12.3627 437.025 18.9973 440.71 27.2022C445.061 36.9382 449.961 46.9882 456.273 54.4472C464.153 63.7121 472.072 66.4209 480.579 62.7307C481.049 62.5344 481.637 62.6129 482.029 62.9662C482.421 63.3196 482.578 63.8692 482.421 64.3795C478.226 78.5909 444.199 94.0193 436.397 95.1578C435.692 95.2363 435.065 95.2756 434.398 95.2756ZM376.614 25.9852C387.434 28.3407 396.254 36.8989 401.938 44.0831C409.975 54.1724 415.385 65.7536 417.815 73.1733C422.285 86.9921 428.4 93.4697 435.927 92.4097C442.435 91.4676 471.366 78.3554 478.501 66.3424C457.684 72.1133 444.12 41.6884 438.162 28.3407C431.183 12.6767 421.657 3.45108 414.444 5.37472C408.015 7.06282 385.16 20.7639 376.614 25.9852Z" fill="#827868"/>
<path d="M407.428 21.7458C406.919 21.7458 406.448 21.471 406.213 20.9999C405.86 20.3325 406.135 19.5081 406.801 19.1548C406.84 19.1155 412.564 16.1319 419.816 12.4809C420.483 12.1276 421.306 12.4024 421.659 13.0698C422.012 13.7372 421.737 14.5616 421.071 14.9149C413.858 18.6052 408.134 21.5495 408.095 21.5888C407.86 21.7066 407.624 21.7458 407.428 21.7458Z" fill="#827868"/>
<path d="M406.331 30.6968C405.9 30.6968 405.508 30.5005 405.233 30.1472C404.802 29.5191 404.919 28.6554 405.547 28.2235C407.977 26.4569 415.935 22.3741 424.089 18.7624C424.795 18.4483 425.579 18.7624 425.893 19.469C426.206 20.1757 425.893 20.9608 425.187 21.2749C417.307 24.7688 409.389 28.7732 407.154 30.422C406.919 30.579 406.605 30.6968 406.331 30.6968Z" fill="#827868"/>
<path d="M416.679 39.1361C416.209 39.1361 415.777 38.9005 415.503 38.4687C415.111 37.8406 415.307 36.9769 415.934 36.5843C416.013 36.545 423.304 32.0304 428.753 29.1645C429.42 28.8112 430.243 29.086 430.596 29.7534C430.949 30.4208 430.674 31.2452 430.008 31.5985C424.676 34.3858 417.424 38.8613 417.346 38.9005C417.189 39.0576 416.914 39.1361 416.679 39.1361Z" fill="#827868"/>
<path d="M423.03 50.0505C422.599 50.0505 422.168 49.8542 421.932 49.5009C421.501 48.8727 421.619 48.009 422.246 47.5772C422.285 47.5379 427.303 43.9262 432.007 40.9426C432.635 40.55 433.497 40.7071 433.889 41.3744C434.281 42.0026 434.124 42.8662 433.458 43.2588C428.793 46.2032 423.892 49.7757 423.814 49.8149C423.618 49.9719 423.304 50.0505 423.03 50.0505Z" fill="#827868"/>
<path d="M499.261 295.37C498.516 295.37 497.889 294.781 497.889 294.035C497.889 293.957 497.889 293.761 497.849 293.525C497.026 283.671 497.967 281.237 499.653 280.57C501.848 279.706 509.689 279.51 511.257 279.471C511.257 279.471 511.257 279.471 511.296 279.471C512.041 279.471 512.668 280.06 512.668 280.805C512.668 281.551 512.08 282.18 511.335 282.219C508.042 282.297 502.436 282.572 500.829 283.043C500.594 283.436 499.966 285.32 500.633 293.25C500.672 293.721 500.672 293.839 500.672 293.957C500.633 294.742 500.006 295.37 499.261 295.37Z" fill="#F6B40C"/>
<path d="M575.628 294.035C575.589 294.035 575.549 294.035 575.51 294.035C574.765 293.957 574.177 293.29 574.256 292.544C574.491 289.796 574.726 284.967 574.334 283.475C573.55 282.808 569.395 282.219 565.278 282.219C564.533 282.219 563.906 281.591 563.906 280.845C563.906 280.099 564.533 279.471 565.278 279.471C570.179 279.471 576.137 280.02 576.921 282.572C577.627 284.849 577.078 291.484 576.961 292.779C576.921 293.525 576.333 294.035 575.628 294.035Z" fill="#F6B40C"/>
<path d="M570.608 347.859C568.491 347.859 566.531 347.584 565.865 347.466C565.12 347.349 564.61 346.642 564.728 345.896C564.845 345.15 565.551 344.64 566.296 344.758C570.373 345.386 574.136 345.072 574.528 344.365C574.724 341.342 574.528 335.689 574.528 335.611C574.489 334.865 575.077 334.197 575.861 334.197C576.606 334.197 577.273 334.747 577.273 335.532C577.273 335.768 577.469 341.381 577.273 344.561C577.233 345.347 576.841 346.053 576.175 346.603C574.96 347.584 572.725 347.859 570.608 347.859Z" fill="#F6B40C"/>
<path d="M510.079 348.644C508.668 348.644 503.846 348.566 502.199 347.663C501.611 347.349 500.004 346.485 500.004 335.571C500.004 334.825 500.631 334.197 501.376 334.197C502.121 334.197 502.748 334.825 502.748 335.571C502.748 339.497 503.101 344.208 503.65 345.307C504.591 345.661 507.609 345.857 510.079 345.857C510.824 345.857 511.451 346.485 511.451 347.231C511.451 347.977 510.863 348.644 510.079 348.644Z" fill="#F6B40C"/>
<path d="M522.157 313.429C518.824 313.429 515.179 313.35 513.336 313.075C512.67 312.958 511.533 312.801 511.258 311.741C510.553 309.11 510.474 300.002 514.512 294.899C517.1 291.64 523.293 290.855 532.976 292.504C533.212 292.543 533.408 292.583 533.486 292.583C533.996 292.622 534.427 292.897 534.662 293.368C534.819 293.682 535.211 294.428 535.172 302.79C535.133 311.191 534.741 311.78 534.545 312.094C534.113 312.761 533.839 313.232 524.822 313.389C523.999 313.429 523.097 313.429 522.157 313.429ZM513.767 310.367C516.747 310.838 529.017 310.798 532.192 310.327C532.467 307.579 532.506 298.04 532.271 295.213C521.177 293.329 517.727 295.291 516.668 296.626C513.532 300.552 513.375 307.697 513.767 310.367ZM533.408 292.622H533.447H533.408Z" fill="#827868"/>
<path d="M525.72 307.895H523.407C522.035 307.895 520.898 306.756 520.898 305.382V303.733C520.898 302.359 522.035 301.221 523.407 301.221H525.72C527.092 301.221 528.229 302.359 528.229 303.733V305.382C528.229 306.795 527.092 307.895 525.72 307.895Z" fill="#827868"/>
<path d="M525.722 308.482H523.41C521.685 308.482 520.312 307.108 520.312 305.381V303.732C520.312 302.005 521.685 300.631 523.41 300.631H525.722C527.447 300.631 528.819 302.005 528.819 303.732V305.381C528.819 307.108 527.408 308.482 525.722 308.482ZM523.41 301.848C522.351 301.848 521.489 302.712 521.489 303.772V305.42C521.489 306.48 522.351 307.344 523.41 307.344H525.722C526.781 307.344 527.643 306.48 527.643 305.42V303.772C527.643 302.712 526.781 301.848 525.722 301.848H523.41Z" fill="#827868"/>
<path d="M525.72 332.861H523.407C522.035 332.861 520.898 331.723 520.898 330.349V328.7C520.898 327.326 522.035 326.188 523.407 326.188H525.72C527.092 326.188 528.229 327.326 528.229 328.7V330.349C528.229 331.723 527.092 332.861 525.72 332.861Z" fill="#827868"/>
<path d="M525.722 333.451H523.41C521.685 333.451 520.312 332.077 520.312 330.35V328.701C520.312 326.974 521.685 325.6 523.41 325.6H525.722C527.447 325.6 528.819 326.974 528.819 328.701V330.35C528.819 332.077 527.408 333.451 525.722 333.451ZM523.41 326.777C522.351 326.777 521.489 327.641 521.489 328.701V330.35C521.489 331.41 522.351 332.273 523.41 332.273H525.722C526.781 332.273 527.643 331.41 527.643 330.35V328.701C527.643 327.641 526.781 326.777 525.722 326.777H523.41Z" fill="#827868"/>
<path d="M552.259 306.676H549.946C548.574 306.676 547.438 305.537 547.438 304.163V302.514C547.438 301.14 548.574 300.002 549.946 300.002H552.259C553.631 300.002 554.768 301.14 554.768 302.514V304.163C554.768 305.537 553.631 306.676 552.259 306.676Z" fill="#827868"/>
<path d="M552.261 307.266H549.949C548.224 307.266 546.852 305.892 546.852 304.164V302.515C546.852 300.788 548.224 299.414 549.949 299.414H552.261C553.986 299.414 555.358 300.788 555.358 302.515V304.164C555.358 305.852 553.947 307.266 552.261 307.266ZM549.949 300.592C548.89 300.592 548.028 301.455 548.028 302.515V304.164C548.028 305.224 548.89 306.088 549.949 306.088H552.261C553.32 306.088 554.182 305.224 554.182 304.164V302.515C554.182 301.455 553.32 300.592 552.261 300.592H549.949Z" fill="#827868"/>
<path d="M552.259 332.861H549.946C548.574 332.861 547.438 331.723 547.438 330.349V328.7C547.438 327.326 548.574 326.188 549.946 326.188H552.259C553.631 326.188 554.768 327.326 554.768 328.7V330.349C554.768 331.723 553.631 332.861 552.259 332.861Z" fill="#827868"/>
<path d="M552.261 333.451H549.949C548.224 333.451 546.852 332.077 546.852 330.35V328.701C546.852 326.974 548.224 325.6 549.949 325.6H552.261C553.986 325.6 555.358 326.974 555.358 328.701V330.35C555.358 332.077 553.947 333.451 552.261 333.451ZM549.949 326.777C548.89 326.777 548.028 327.641 548.028 328.701V330.35C548.028 331.41 548.89 332.273 549.949 332.273H552.261C553.32 332.273 554.182 331.41 554.182 330.35V328.701C554.182 327.641 553.32 326.777 552.261 326.777H549.949Z" fill="#827868"/>
<path d="M551.127 313.939C547.795 313.939 544.149 313.782 542.424 313.389C540.856 313.036 540.542 312.172 540.581 311.544C540.581 311.23 540.62 310.249 540.62 308.993C540.856 292.936 541.208 292.583 541.875 291.994C543.286 290.738 552.381 290.581 557.674 293.211C561.006 294.86 562.456 299.61 563.123 303.339C563.711 306.833 563.828 311.034 563.358 312.133C563.044 312.879 562.691 313.664 553.675 313.861C552.852 313.9 551.989 313.939 551.127 313.939ZM543.286 310.759C546.305 311.348 557.948 311.269 560.81 310.641C561.006 307.972 560.339 297.647 556.419 295.684C552.303 293.643 545.795 293.721 543.874 294.074C543.521 296.508 543.365 305.813 543.325 309.032C543.325 309.738 543.325 310.327 543.286 310.759Z" fill="#827868"/>
<path d="M529.368 344.874C524.35 344.874 515.569 343.892 512.746 337.376C510.198 331.487 511.492 321.633 512.354 320.338C512.746 319.709 513.177 319.042 519.999 318.846C523.449 318.767 527.526 318.846 530.348 319.081C533.445 319.317 534.386 319.631 534.739 320.534C535.17 321.515 535.052 328.111 534.974 331.958C534.7 342.44 534.19 343.539 533.994 343.892C533.72 344.481 533.249 344.678 533.014 344.717C532.975 344.717 531.524 344.874 529.368 344.874ZM514.628 322.026C514.157 323.949 513.256 331.683 515.255 336.276C517.843 342.244 528.506 342.361 531.642 342.087C532.151 338.789 532.465 325.323 532.23 322.026C529.29 321.515 517.215 321.319 514.628 322.026Z" fill="#827868"/>
<path d="M542.186 327.562H542.147C541.402 327.523 540.775 326.895 540.814 326.149C540.853 324.853 540.853 323.754 540.853 322.812C540.853 320.181 540.853 319.2 541.559 318.493C542.069 317.983 542.186 317.865 555.476 318.101C556.221 318.101 556.848 318.729 556.809 319.514C556.809 320.26 556.182 320.849 555.437 320.849C555.437 320.849 555.437 320.849 555.398 320.849C550.772 320.77 545.597 320.731 543.598 320.77C543.558 321.32 543.558 322.066 543.558 322.812C543.558 323.754 543.558 324.892 543.519 326.227C543.519 326.973 542.931 327.562 542.186 327.562Z" fill="#827868"/>
<path d="M554.144 343.422C553.595 343.422 553.085 343.108 552.889 342.598C552.576 341.891 552.928 341.106 553.595 340.792C557.437 339.143 562.219 337.101 561.396 318.964C561.357 318.218 561.945 317.551 562.69 317.512C563.435 317.472 564.101 318.061 564.14 318.807C565.003 337.298 560.142 340.949 554.693 343.304C554.497 343.383 554.34 343.422 554.144 343.422Z" fill="#827868"/>
<path d="M544.816 344.286C542.385 344.286 541.366 344.05 540.935 343.108C540.661 342.519 540.621 341.538 540.582 336.709C540.582 335.688 540.543 334.55 540.543 333.372C540.543 332.626 541.131 331.998 541.876 331.959C542.621 331.959 543.248 332.548 543.287 333.294C543.287 334.471 543.326 335.61 543.326 336.67C543.366 338.554 543.366 340.478 543.444 341.499C544.424 341.577 546.266 341.538 547.168 341.499C547.678 341.499 548.109 341.459 548.423 341.459C549.167 341.459 549.795 342.088 549.795 342.833C549.795 343.579 549.167 344.207 548.423 344.207C548.148 344.207 547.756 344.207 547.247 344.247C546.306 344.286 545.482 344.286 544.816 344.286Z" fill="#827868"/>
<path d="M300.699 213.386C300.66 213.386 300.62 213.386 300.542 213.386C299.797 213.308 299.248 212.641 299.327 211.895C301.365 192.305 308.618 162.351 310.186 155.952C307.951 155.167 302.894 153.4 297.876 151.32C285.331 146.098 283.763 143.586 283.92 141.662C284.038 140.367 284.195 138.561 308.735 129.021C320.496 124.428 332.374 120.227 332.492 120.188C333.198 119.952 333.982 120.306 334.256 121.012C334.491 121.719 334.138 122.504 333.433 122.779C312.224 130.277 289.408 139.346 286.743 142.015C287.096 142.643 289.095 144.724 299.483 149.003C305.834 151.634 312.146 153.714 312.224 153.754C312.891 153.989 313.283 154.696 313.126 155.402C313.048 155.756 304.305 190.46 302.032 212.209C301.992 212.876 301.404 213.386 300.699 213.386Z" fill="#827868"/>
<path d="M329.669 170.556C328.924 170.556 328.297 169.928 328.297 169.182C328.297 168.436 328.924 167.808 329.669 167.808C336.373 167.808 340.293 164.824 340.646 159.407C340.685 158.661 341.351 158.072 342.096 158.111C342.841 158.15 343.429 158.818 343.39 159.564C342.919 166.434 337.784 170.556 329.669 170.556Z" fill="#202D37"/>
<path d="M344.489 226.694C344.45 226.694 344.371 226.694 344.332 226.694C343.587 226.616 343.038 225.948 343.117 225.163C344.136 215.741 345.587 204.435 347.429 191.558C349.82 174.678 352.016 161.055 352.016 160.898C352.133 160.231 352.721 159.72 353.388 159.759C357.896 159.838 361.816 159.642 365.031 159.131C371.735 158.071 373.93 156.069 374.636 154.97C375.106 154.224 375.224 153.4 374.949 152.536C374.087 149.67 364.6 147.158 351.898 147.982C351.153 148.021 350.487 147.472 350.448 146.687C350.409 145.941 350.957 145.273 351.741 145.234C363.032 144.527 375.929 146.255 377.615 151.751C378.125 153.4 377.889 155.009 376.988 156.462C375.302 159.131 371.46 160.976 365.501 161.879C362.404 162.35 358.759 162.586 354.564 162.547C353.976 166.198 352.133 177.975 350.173 191.99C348.37 204.828 346.92 216.095 345.9 225.477C345.783 226.184 345.195 226.694 344.489 226.694Z" fill="#827868"/>
<path d="M354.365 155.009C353.698 155.009 353.11 154.499 352.992 153.832C352.875 153.086 353.424 152.379 354.169 152.301C359.696 151.555 365.89 151.829 366.164 151.869C366.909 151.908 367.497 152.536 367.458 153.321C367.419 154.067 366.753 154.656 366.008 154.617C365.929 154.617 359.814 154.303 354.521 155.049C354.482 155.009 354.443 155.009 354.365 155.009Z" fill="#202D37"/>
<path d="M352.287 124.111C352.287 124.111 361.97 119.636 369.183 127.684C377.572 137.145 368.517 147.195 368.321 147.509C362.989 146.449 357.03 146.41 357.03 146.41C357.618 155.989 353.698 157.481 352.012 157.245C350.288 157.01 350.915 153.634 350.915 153.634C326.884 145.311 334.371 124.818 334.371 124.818C329.824 126.703 321.356 125.682 321.16 125.76C323.904 111.706 346.093 113.394 352.287 124.111Z" fill="#202D37"/>
<path d="M352.327 158.659C352.131 158.659 351.974 158.659 351.778 158.62C351.073 158.502 350.485 158.149 350.093 157.6C349.465 156.736 349.387 155.519 349.426 154.616C341.899 151.789 336.685 147.471 333.98 141.739C331.197 135.89 331.746 130.04 332.412 126.86C328.453 127.685 323.592 127.332 321.749 127.214C321.514 127.214 321.318 127.175 321.24 127.175C320.887 127.214 320.534 127.096 320.26 126.86C319.868 126.546 319.711 126.036 319.789 125.565C320.965 119.716 325.356 115.711 331.863 114.612C339.978 113.238 348.76 116.614 352.837 122.464C355.777 121.521 363.931 119.755 370.203 126.821C378.279 135.929 371.693 145.547 369.459 148.295L369.38 148.374C369.067 148.806 368.518 149.002 368.008 148.924C364.401 148.217 360.481 147.981 358.404 147.864C358.482 152.339 357.541 155.519 355.581 157.325C354.679 158.149 353.464 158.659 352.327 158.659ZM352.288 155.911C352.523 155.911 353.111 155.872 353.778 155.283C354.64 154.498 356.012 152.3 355.659 146.529C355.62 146.136 355.777 145.783 356.051 145.508C356.326 145.233 356.679 145.076 357.071 145.076C357.306 145.076 362.598 145.155 367.773 146.058C370.243 142.799 374.32 135.537 368.204 128.627C361.775 121.404 352.994 125.329 352.915 125.369C352.288 125.683 351.504 125.408 351.151 124.819C347.976 119.362 339.743 116.065 332.373 117.282C329.511 117.753 324.689 119.323 322.925 124.505C325.552 124.662 330.766 124.819 333.863 123.563C334.372 123.367 334.96 123.484 335.353 123.838C335.745 124.23 335.862 124.78 335.705 125.29C335.666 125.369 332.961 133.063 336.529 140.562C339.038 145.822 344.055 149.787 351.426 152.339C352.053 152.575 352.445 153.203 352.327 153.909C352.131 154.655 352.131 155.558 352.288 155.911Z" fill="#202D37"/>
<path d="M368.324 190.144C362.286 194.148 354.72 195.679 348.801 191.753C351.231 174.676 353.387 161.132 353.387 161.132C358.209 161.211 362.13 160.975 365.266 160.465C361.659 171.418 362.208 180.997 365.658 181.507C369.46 182.096 370.911 180.84 372.754 179.505C374.596 178.249 376.007 185.001 368.324 190.144Z" fill="#202D37"/>
<path d="M356.641 195.444C353.544 195.444 350.604 194.62 348.056 192.931C347.625 192.657 347.39 192.107 347.468 191.597C349.859 174.716 352.055 161.093 352.055 160.936C352.172 160.269 352.76 159.758 353.427 159.798C357.935 159.876 361.855 159.68 365.07 159.17C365.54 159.091 366.011 159.287 366.324 159.641C366.638 159.994 366.716 160.504 366.599 160.975C363.698 169.808 363.698 177.189 365.188 179.623C365.423 179.976 365.658 180.212 365.893 180.251C368.873 180.722 370.049 179.898 371.617 178.759L372.009 178.484C372.675 178.013 373.42 177.935 374.126 178.249C374.988 178.642 375.537 179.662 375.655 180.997C375.851 183.627 374.243 187.946 369.147 191.361C364.952 194.07 360.64 195.444 356.641 195.444ZM350.291 191.086C355.113 193.834 361.503 193.088 367.579 189.045C371.617 186.375 372.558 183.47 372.754 182.371C372.832 181.9 372.871 181.507 372.832 181.233C371.146 182.45 369.304 183.549 365.423 182.96C364.678 182.842 363.659 182.41 362.796 181.076C360.758 177.778 360.993 170.201 363.306 162.192C360.718 162.467 357.778 162.624 354.525 162.585C353.976 166.118 352.212 177.464 350.291 191.086Z" fill="#202D37"/>
<path d="M378.829 412.817C378.006 412.817 377.221 412.739 376.516 412.621C375.771 412.503 375.261 411.796 375.379 411.051C375.497 410.305 376.202 409.794 376.947 409.912C381.769 410.658 392.197 408.931 408.231 388.634C438.573 350.24 447.315 328.334 441.553 304.897C435.359 279.693 406.466 262.655 397.764 258.023C393.177 255.589 383.69 249.818 373.615 243.654C361.54 236.313 346.565 227.205 344.409 226.656C343.978 226.695 343.115 227.048 342.175 227.48C338.45 229.09 331.472 232.113 318.967 229.011C307.088 226.106 304.109 220.217 302.149 216.292C301.404 214.8 300.816 213.661 299.993 213.151C296.7 211.149 265.22 208.518 257.732 208.361H256.948C244.639 208.126 233.074 207.184 231.82 201.923C231.153 199.057 229.468 196.545 221.823 197.723C218.726 198.194 216.648 197.84 215.276 196.584C213.708 195.131 213.63 192.815 213.787 190.735C213.865 189.871 214.061 187.201 209.67 186.809L209.435 186.77C205.123 186.416 203.829 184.846 203.594 175.385C203.398 168.201 186.58 152.419 178.504 144.842C175.956 142.447 174.114 140.72 173.29 139.778C170.821 136.912 158.55 133.653 151.18 132.672C150.435 132.554 149.887 131.887 150.004 131.141C150.122 130.395 150.788 129.845 151.533 129.963C157.492 130.748 171.801 133.889 175.368 138.011C176.074 138.836 177.995 140.641 180.386 142.879C192.813 154.539 206.142 167.651 206.338 175.345C206.456 179.664 206.809 182.176 207.436 183.236C207.789 183.825 208.141 183.943 209.67 184.061L209.906 184.1C214.335 184.493 216.805 187.044 216.531 190.97C216.374 192.972 216.57 194.072 217.158 194.582C217.824 195.21 219.275 195.328 221.431 195.014C224.214 194.582 232.643 193.326 234.525 201.295C234.642 201.845 235.662 203.65 243.149 204.71C248.01 205.417 253.655 205.535 257.066 205.574H257.85C262.554 205.653 297.013 208.047 301.482 210.756C302.972 211.659 303.756 213.19 304.658 214.996C306.5 218.647 309.048 223.672 319.672 226.263C331.315 229.129 337.47 226.459 341.155 224.85C342.566 224.261 343.586 223.79 344.566 223.829C346.291 223.868 353.308 227.99 375.105 241.22C385.14 247.345 394.627 253.116 399.136 255.51C408.113 260.261 437.828 277.848 444.297 304.151C450.295 328.53 441.435 351.064 410.465 390.244C396.078 408.46 385.611 412.817 378.829 412.817Z" fill="#827868"/>
<path d="M354.839 382.902C354.251 382.902 353.702 382.509 353.506 381.92C350.801 372.42 351.389 370.221 353.898 365.785C354.878 364.097 358.328 359.975 362.757 354.714C370.206 345.842 381.457 332.494 382.907 327.587C385.024 320.442 382.163 310.235 347.429 284.246C346.841 283.775 346.684 282.951 347.155 282.323C347.625 281.734 348.449 281.577 349.076 282.048C383.143 307.526 388.278 318.99 385.534 328.333C383.927 333.751 373.381 346.352 364.874 356.442C360.719 361.388 357.152 365.628 356.328 367.081C354.172 370.849 353.702 372.302 356.211 381.096C356.407 381.842 356.015 382.588 355.27 382.784C355.074 382.902 354.956 382.902 354.839 382.902Z" fill="#827868"/>
<path d="M251.46 275.493C251.421 275.493 251.342 275.493 251.303 275.493C244.678 274.668 185.953 266.738 166.038 249.347C143.81 229.914 121.386 174.246 121.19 173.696C118.995 168.083 118.72 163.489 120.093 154.853C120.21 154.107 120.916 153.596 121.661 153.714C122.406 153.832 122.915 154.539 122.798 155.284C121.504 163.45 121.7 167.533 123.738 172.715C123.934 173.265 146.084 228.265 167.841 247.305C187.129 264.186 245.109 271.959 251.656 272.784C252.401 272.862 252.95 273.569 252.832 274.315C252.754 274.982 252.126 275.493 251.46 275.493Z" fill="#827868"/>
<path d="M236.641 302.894C236.406 302.894 236.132 302.815 235.936 302.698C235.308 302.305 235.073 301.441 235.465 300.813C238.444 295.945 253.381 270.938 257.066 255.352C257.222 254.607 257.967 254.135 258.712 254.332C259.457 254.489 259.888 255.235 259.731 255.981C255.968 271.998 240.797 297.359 237.817 302.266C237.543 302.658 237.072 302.894 236.641 302.894Z" fill="#827868"/>
<path d="M368.243 419.098C367.341 419.098 365.459 419.099 355.267 406.811C352.052 402.924 345.623 394.798 345.309 393.581C344.212 389.38 351.621 382.51 353.934 380.508C354.248 380.233 354.64 380.115 355.032 380.194C355.424 380.233 355.776 380.469 355.972 380.783C360.834 388.163 374.202 407.871 377.534 410.344C377.847 410.58 378.043 410.894 378.083 411.286C378.122 411.679 378.004 412.032 377.769 412.307C376.828 413.445 371.967 419.098 368.243 419.098ZM347.936 392.756C348.485 393.738 352.562 399.195 357.345 405.005C365.695 415.094 367.929 416.233 368.282 416.35C369.889 416.272 372.751 413.759 374.79 411.561C369.929 406.536 358.129 389.027 354.561 383.649C350.955 386.985 347.701 391.147 347.936 392.756Z" fill="#827868"/>
<path d="M321.124 450.19C320.105 450.19 319.282 449.876 318.733 449.247C317.949 448.384 317.792 447.128 318.341 445.439C316.302 446.617 314.185 447.442 312.813 446.931C311.99 446.617 311.48 445.95 311.284 445.008C310.696 441.631 314.028 437.902 317.596 433.976C319.909 431.385 322.3 428.716 323.123 426.596C324.378 423.219 324.691 420.707 324.691 419.451C324.613 419.49 324.535 419.529 324.456 419.529C319.556 421.414 314.107 423.337 311.323 421.924C310.5 421.492 309.951 420.825 309.716 419.961C308.854 416.742 314.695 412.895 326.926 405.121C333.434 400.999 340.843 396.328 345.822 392.127C346.41 391.656 347.272 391.695 347.742 392.284C348.213 392.873 348.174 393.737 347.586 394.208C342.45 398.526 334.962 403.276 328.376 407.438C324.064 410.186 319.987 412.738 316.969 414.936C312.931 417.88 312.421 418.98 312.382 419.254C312.421 419.333 312.46 419.372 312.578 419.451C314.538 420.432 321.281 417.802 323.515 416.938C324.77 416.467 325.123 416.31 325.436 416.31C325.985 416.271 326.534 416.506 326.887 416.977C328.141 418.626 327.161 423.612 325.711 427.538C324.731 430.168 322.143 433.034 319.674 435.782C316.929 438.805 313.872 442.26 313.989 444.34C315.126 444.222 318.419 442.338 321.202 440.1C321.712 439.669 322.496 439.708 322.967 440.14C323.476 440.611 323.555 441.357 323.202 441.906C320.654 445.832 320.771 447.128 320.81 447.363C321.085 447.442 322.3 447.481 324.809 446.225C325.358 445.95 326.064 446.068 326.456 446.539C326.652 446.774 327.004 447.088 327.788 447.128C331.199 447.245 337.981 441.788 341.431 438.334C341.941 437.823 342.725 437.784 343.273 438.216C343.822 438.648 343.94 439.433 343.548 440.022C342.489 441.71 341.039 444.733 341.313 445.95V445.989C342.568 445.557 346.37 442.613 352.564 435.861C358.484 429.383 363.933 422.277 367.108 416.938C367.501 416.271 368.324 416.074 368.99 416.467C369.657 416.86 369.853 417.684 369.461 418.351C366.05 424.083 360.052 431.856 353.74 438.648C342.96 450.268 340.921 449.09 340.059 448.58C339.353 448.148 338.844 447.481 338.648 446.656C338.491 445.989 338.53 445.282 338.648 444.497C335.355 447.128 331.003 449.993 327.671 449.915C326.73 449.876 325.907 449.601 325.201 449.13C323.594 449.836 322.222 450.19 321.124 450.19Z" fill="#827868"/>
<path d="M322.025 442.573C321.633 442.573 321.241 442.416 320.967 442.102C320.457 441.513 320.536 440.65 321.124 440.178C326.69 435.389 332.414 428.951 333.394 427.106C333.747 426.438 334.57 426.163 335.237 426.556C335.903 426.909 336.177 427.734 335.785 428.401C334.531 430.717 328.494 437.43 322.849 442.259C322.653 442.495 322.339 442.573 322.025 442.573Z" fill="#827868"/>
<path d="M325.396 448.895C324.965 448.895 324.533 448.699 324.259 448.307C323.828 447.678 323.985 446.815 324.612 446.383C331.864 441.397 339.234 432.093 339.313 432.015C339.783 431.426 340.646 431.308 341.234 431.779C341.822 432.25 341.939 433.114 341.469 433.703C341.155 434.095 333.746 443.439 326.18 448.621C325.945 448.817 325.67 448.895 325.396 448.895Z" fill="#827868"/>
<path d="M342.331 440.729C342.018 440.729 341.704 440.611 341.43 440.375C340.842 439.865 340.802 439.001 341.312 438.452C342.135 437.47 343.076 436.332 343.507 435.743C343.782 435.39 344.644 434.29 345.703 435.076C346.134 435.39 346.565 436.175 345.977 437.038C345.938 437.117 345.859 437.195 345.781 437.235C345.742 437.274 345.703 437.313 345.663 437.392C345.193 437.981 344.291 439.198 343.39 440.218C343.115 440.572 342.723 440.729 342.331 440.729Z" fill="#827868"/>
<path d="M187.404 383.687C186.699 383.687 186.111 383.137 186.032 382.43C185.758 379.29 184.425 362.487 183.288 341.563C182.622 328.961 182.386 320.246 185.483 313.847C188.855 306.82 196.029 303.286 208.73 302.423C218.649 301.716 237.623 300.067 259.615 298.143C293.172 295.199 334.923 291.509 358.837 290.096C359.581 290.056 360.248 290.645 360.287 291.391C360.326 292.137 359.738 292.804 358.993 292.844C335.119 294.257 293.408 297.908 259.85 300.892C237.858 302.815 218.884 304.503 208.926 305.171C197.323 305.995 190.893 309.018 187.992 315.064C185.209 320.835 185.444 329.275 186.071 341.406C187.208 362.291 188.541 379.054 188.776 382.195C188.855 382.941 188.267 383.608 187.522 383.687C187.483 383.687 187.444 383.687 187.404 383.687Z" fill="#827868"/>
<path d="M190.263 440.416C184.461 440.416 181.012 439.002 179.522 436.176C174.308 426.047 175.092 397.703 177.052 388.831C179.13 379.409 186.539 380.665 191.949 381.568C192.38 381.646 192.772 381.725 193.204 381.764C198.535 382.628 223.546 378.231 233.072 375.836C238.639 374.423 243.539 373.441 246.95 375.758C249.302 377.328 250.674 380.233 251.341 384.866C252.36 392.285 253.301 404.259 254.046 419.413C254.399 426.989 249.733 428.56 236.209 431.151C232.955 431.779 228.564 432.917 223.507 434.252C215.079 436.451 205.513 438.924 197.398 440.023C194.654 440.259 192.302 440.416 190.263 440.416ZM179.718 389.38C177.679 398.645 177.444 426.126 181.952 434.88C182.893 436.686 186.265 438.57 196.967 437.157C204.925 436.097 214.412 433.663 222.762 431.465C227.898 430.13 232.328 428.992 235.66 428.324C250.086 425.576 251.498 424.202 251.262 419.452C250.518 404.377 249.616 392.521 248.597 385.14C248.087 381.411 247.028 379.055 245.421 377.956C243.187 376.425 239.58 376.935 233.739 378.427C224.958 380.665 198.849 385.376 192.772 384.434C192.341 384.355 191.91 384.277 191.518 384.237C185.089 383.177 181.129 382.981 179.718 389.38Z" fill="#827868"/>
<path d="M230.407 492.001C200.457 492.001 194.89 483.325 193.792 475.905C192.812 469.427 190.97 454.352 190.107 439.12C190.068 438.374 190.656 437.707 191.401 437.668C192.146 437.628 192.812 438.217 192.851 438.963C193.714 454.078 195.556 469.035 196.537 475.473C197.085 479.203 198.928 483.874 208.454 486.74C220.332 490.313 241.031 490.038 269.963 485.837C299.012 481.637 336.764 475.591 370.125 470.252C405.289 464.638 435.632 459.77 446.099 458.631C465.504 456.512 476.403 454.117 474.403 429.384C472.443 405.319 464.093 318.834 461.584 300.422C459.232 283.266 453.195 281.696 430.418 282.952C429.673 282.991 429.007 282.402 428.968 281.656C428.928 280.91 429.517 280.243 430.261 280.204C442.336 279.536 449.863 279.693 455.037 282.363C460.212 285.072 462.917 290.175 464.25 300.029C466.798 318.48 475.148 405.044 477.108 429.149C479.264 455.844 466.955 459.142 446.374 461.38C435.985 462.518 405.642 467.386 370.517 473C337.195 478.339 299.404 484.385 270.315 488.585C253.654 490.98 240.639 492.001 230.407 492.001Z" fill="#827868"/>
<path d="M230.056 415.801C224.411 415.801 219.824 411.208 219.824 405.555C219.824 399.902 224.411 395.309 230.056 395.309C235.701 395.309 240.288 399.902 240.288 405.555C240.288 411.208 235.701 415.801 230.056 415.801ZM230.056 398.057C225.94 398.057 222.568 401.433 222.568 405.555C222.568 409.677 225.94 413.053 230.056 413.053C234.172 413.053 237.544 409.677 237.544 405.555C237.544 401.433 234.172 398.057 230.056 398.057Z" fill="#827868"/>
<path d="M329.669 393.344C324.024 393.344 319.438 388.751 319.438 383.098C319.438 377.445 324.024 372.852 329.669 372.852C335.314 372.852 339.901 377.445 339.901 383.098C339.901 388.751 335.314 393.344 329.669 393.344ZM329.669 375.6C325.553 375.6 322.182 378.976 322.182 383.098C322.182 387.22 325.553 390.596 329.669 390.596C333.786 390.596 337.157 387.22 337.157 383.098C337.157 378.976 333.786 375.6 329.669 375.6Z" fill="#827868"/>
<path d="M315.045 373.872C314.889 373.872 314.693 373.833 314.536 373.754C313.83 373.479 313.477 372.655 313.791 371.948C315.359 368.062 319.71 365.039 325.434 363.822C330.962 362.644 338.645 363.115 343.663 367.944C344.212 368.454 344.212 369.357 343.702 369.868C343.193 370.417 342.291 370.417 341.781 369.907C338.292 366.531 332.098 365.196 326.022 366.491C321.2 367.512 317.594 369.946 316.339 372.969C316.104 373.558 315.594 373.872 315.045 373.872Z" fill="#827868"/>
<path d="M310.929 362.41C310.772 362.41 310.615 362.371 310.458 362.331C309.753 362.056 309.4 361.271 309.635 360.565C311.556 355.461 316.927 351.535 324.022 350.044C332.216 348.355 340.291 350.436 345.113 355.461C345.623 356.011 345.623 356.874 345.074 357.385C344.525 357.895 343.663 357.895 343.153 357.345C338.174 352.163 330.295 351.535 324.61 352.713C318.534 353.969 313.791 357.345 312.222 361.468C312.026 362.056 311.517 362.41 310.929 362.41Z" fill="#827868"/>
<path d="M302.501 352.792C302.305 352.792 302.109 352.752 301.952 352.674C301.247 352.36 300.933 351.535 301.247 350.868C303.677 345.372 310.185 341.093 319.044 339.13C330.688 336.578 342.723 338.855 349.662 344.979C350.25 345.49 350.289 346.353 349.779 346.903C349.27 347.492 348.407 347.531 347.858 347.021C341.547 341.485 330.452 339.405 319.633 341.799C311.753 343.527 305.794 347.335 303.756 351.967C303.52 352.478 303.011 352.792 302.501 352.792Z" fill="#827868"/>
<path d="M121.192 156.895C120.879 156.895 120.526 156.816 120.173 156.58C117.978 155.363 110.96 146.02 112.333 141.78C114.567 134.792 134.56 121.994 145.223 120.738C146.125 120.62 147.536 121.013 150.085 124.899C151.339 126.784 152.672 129.257 152.868 130.631C153.103 132.044 152.201 132.633 151.613 132.751C148.869 133.34 126.759 151.202 122.408 156.345C122.133 156.659 121.702 156.895 121.192 156.895ZM145.341 123.525C135.07 124.86 116.684 137.148 114.92 142.683C114.214 144.921 118.879 152.027 120.996 153.872C125.74 148.925 144.243 133.34 150.006 130.513C149.3 128.55 146.517 124.153 145.341 123.525Z" fill="#827868"/>
<path d="M111.273 133.103C111.038 133.103 110.802 133.024 110.567 132.907C106.765 130.708 104.452 125.565 104.648 119.794C104.765 116.575 105.628 113.788 107.157 111.668C101.276 112.061 91.9852 111.943 90.6915 107.114C89.0058 100.833 100.296 97.7314 111.234 94.7085C111.939 94.5122 112.645 94.3159 113.311 94.1196C110.881 85.8755 107.627 76.8854 106.176 75.8647C105.667 75.4721 104.804 75.001 103.824 74.4121C99.6689 71.8996 92.6909 67.7383 91.8284 62.2421C91.2796 58.6697 92.2596 55.686 94.455 54.2335C96.1799 53.1343 98.336 53.1735 100.139 54.3513C101.041 54.9401 103.236 56.1964 105.824 57.6882C116.526 63.8517 121.779 67.0316 122.759 68.6019C124.131 70.8004 142.008 116.811 144.007 122.071C144.281 122.778 143.928 123.563 143.223 123.838C142.517 124.113 141.733 123.759 141.459 123.053C133.579 102.717 121.465 71.7818 120.446 70.0545C119.466 68.7197 109.352 62.8703 104.491 60.0829C101.786 58.5126 99.6297 57.2956 98.6496 56.6675C97.748 56.0786 96.7287 56.0394 95.9447 56.5497C94.6902 57.3741 94.1413 59.337 94.5334 61.8103C95.1998 66.0502 101.472 69.8189 105.236 72.0566C106.255 72.6848 107.157 73.1951 107.784 73.6662C110.763 75.8254 115.075 90.3509 116.33 94.7478C116.448 95.1011 116.369 95.4937 116.212 95.8077C116.016 96.1218 115.742 96.3573 115.389 96.4751C114.291 96.7892 113.155 97.1032 111.939 97.4173C104.138 99.5765 92.338 102.796 93.3181 106.447C94.1021 109.43 104.373 109.47 111.038 108.567C111.704 108.488 112.331 108.881 112.527 109.509C112.723 110.137 112.41 110.844 111.822 111.158C109.195 112.453 107.509 115.751 107.353 119.912C107.196 124.584 108.999 128.863 111.9 130.551C112.566 130.944 112.763 131.768 112.41 132.435C112.214 132.867 111.743 133.103 111.273 133.103Z" fill="#827868"/>
<path d="M113.623 143.585C113.545 143.585 113.467 143.585 113.388 143.545C110.409 143.035 104.607 139.777 99.785 134.791C95.5119 130.355 90.4156 122.974 90.5332 113.042C90.5332 112.296 91.1605 111.668 91.9053 111.668C92.6502 111.668 93.2774 112.296 93.2774 113.042C93.1598 122.032 97.8249 128.784 101.745 132.867C106.449 137.735 111.624 140.444 113.819 140.837C114.564 140.954 115.074 141.661 114.956 142.407C114.839 143.114 114.251 143.585 113.623 143.585Z" fill="#827868"/>
<path d="M102.998 99.9689C102.489 99.9689 102.018 99.6941 101.744 99.1837C98.8037 93.138 96.9612 85.3256 100.489 81.4391C102.018 79.7903 105.076 78.3377 111.231 80.7324C111.937 81.0073 112.289 81.7924 112.015 82.4991C111.741 83.2057 110.957 83.559 110.251 83.2842C107.663 82.2635 104.214 81.4391 102.528 83.2842C100.45 85.5612 101.117 91.6069 104.214 97.9667C104.527 98.6341 104.253 99.4585 103.586 99.8118C103.39 99.9296 103.194 99.9689 102.998 99.9689Z" fill="#827868"/>
<path d="M94.609 103.621C94.1778 103.621 93.7074 103.386 93.4722 102.993C90.336 98.2037 88.4543 90.9802 91.1984 87.0544C92.3353 85.4055 94.7266 83.7175 99.7054 84.8952C100.45 85.0522 100.881 85.7981 100.725 86.544C100.568 87.2899 99.823 87.7218 99.0781 87.5647C96.2948 86.8974 94.413 87.2507 93.433 88.6247C91.5513 91.3335 93.1194 97.4578 95.7459 101.462C96.1771 102.09 95.9811 102.954 95.3539 103.346C95.1579 103.543 94.8835 103.621 94.609 103.621Z" fill="#827868"/>
<path d="M96.3775 115.673C93.8685 115.673 90.7323 114.417 87.3217 111.944C82.4998 108.45 80.1477 101.54 82.3038 97.1435C83.0487 95.6516 85.4008 92.3932 91.5948 94.2384C92.3396 94.4347 92.7316 95.2198 92.5356 95.9657C92.3004 96.7116 91.5556 97.1042 90.8107 96.9079C88.6938 96.2798 85.9104 96.005 84.7343 98.3997C83.3231 101.266 84.852 106.84 88.8898 109.745C93.4373 113.043 96.5343 113.357 97.7888 112.611C98.416 112.258 98.6904 111.512 98.5728 110.491C98.4944 109.745 99.0432 109.078 99.7881 108.999C100.533 108.921 101.199 109.47 101.278 110.216C101.474 112.336 100.69 114.064 99.1216 115.006C98.416 115.438 97.4751 115.673 96.3775 115.673Z" fill="#827868"/>
<path d="M17.343 316.359C8.91446 316.359 7.22874 313.807 6.01347 309.018C4.48457 302.933 3.38691 295.395 1.34838 276.748C1.30918 276.277 1.26998 275.845 1.19157 275.413L0.956357 273.411C0.485928 269.053 0.0939061 265.638 0.0155012 262.89C-0.219713 254.92 2.17164 252.212 10.6394 250.877C34.7489 247.069 67.2477 244.164 79.518 243.064C80.7333 242.947 81.7526 242.868 82.5366 242.79C89.3578 242.162 93.1213 244.517 95.199 250.681C96.1006 253.35 96.6887 256.844 97.0807 261.437L97.1199 261.83C97.1983 262.576 96.6103 263.243 95.8654 263.322C95.1206 263.4 94.4542 262.811 94.3757 262.065L94.3365 261.673C93.9837 257.315 93.3957 254.017 92.5724 251.583C90.8867 246.637 88.3386 245.067 82.7326 245.538C81.9486 245.616 80.9685 245.695 79.714 245.813C67.4829 246.912 35.0233 249.778 11.0314 253.586C3.89654 254.724 2.52445 256.255 2.72047 262.811C2.79887 265.442 3.19089 268.857 3.66132 273.136L3.89654 275.138C3.93574 275.57 4.01414 276.041 4.05335 276.473C6.05267 294.964 7.15034 302.423 8.64004 308.351C9.85531 313.101 10.5218 315.731 36.4346 311.491C37.1794 311.373 37.885 311.884 38.0027 312.63C38.1203 313.376 37.6106 314.082 36.8658 314.2C27.9668 315.653 21.7337 316.359 17.343 316.359Z" fill="#827868"/>
<path d="M95.7077 261.515C80.3796 263.595 31.5334 270.191 2.44519 274.313C1.89636 269.484 1.46512 265.755 1.38672 262.81C22.3992 260.415 76.6946 253.349 93.9044 251.111C94.7669 253.702 95.3549 257.079 95.7077 261.515Z" fill="#827868"/>
<path d="M2.44729 274.903C2.32968 274.903 2.17286 274.863 2.09446 274.785C1.97685 274.706 1.89845 274.549 1.85925 274.392L1.74164 273.332C1.27121 269.014 0.879186 265.559 0.800781 262.85C0.800781 262.536 1.03599 262.301 1.31041 262.261C23.2246 259.749 82.2242 252.054 93.789 250.563C94.0634 250.523 94.3378 250.68 94.4162 250.955C95.2786 253.546 95.9059 257.001 96.2587 261.516C96.2979 261.83 96.0627 262.104 95.7491 262.144L95.3962 262.183C79.5585 264.342 31.3395 270.859 2.48648 274.942C2.52568 274.903 2.48649 274.903 2.44729 274.903ZM2.01606 263.361C2.13367 265.952 2.48649 269.171 2.95691 273.214L2.99612 273.686C31.8099 269.642 79.1272 263.204 95.0826 261.044C94.7298 257.158 94.2202 254.135 93.4753 251.78C80.9306 253.389 24.0478 260.809 2.01606 263.361Z" fill="#827868"/>
<path d="M16.5994 290.999C15.5017 290.999 14.6001 290.92 13.9336 290.802C13.5024 290.724 12.2087 290.41 11.7775 289.271C11.3855 288.172 10.7582 285.974 10.3662 284.011C9.66056 280.477 9.93498 279.3 10.5622 278.632C12.4047 276.669 23.5382 275.413 27.5761 275.766C29.2618 275.923 30.1634 276.277 30.6339 277.023C31.8099 278.789 33.7309 285.777 31.4571 288.133C29.9282 289.625 21.5781 290.999 16.5994 290.999ZM14.2472 288.054C16.4426 288.918 27.9289 287.269 29.497 286.131C30.1634 285.306 29.4578 280.477 28.4385 278.632C27.6937 278.357 24.8711 278.24 20.4412 278.75C16.2074 279.26 13.4632 280.006 12.6791 280.399C12.5615 281.577 13.424 285.62 14.2472 288.054ZM11.5423 279.496L12.5223 280.438L11.5423 279.496Z" fill="#827868"/>
<path d="M201.479 369.162C200.773 369.162 200.146 368.613 200.106 367.867C199.95 365.237 199.754 362.646 199.558 360.094L199.401 358.092C199.362 357.346 199.91 356.678 200.655 356.639C201.4 356.6 202.067 357.149 202.106 357.895L202.263 359.897C202.459 362.449 202.655 365.04 202.811 367.71C202.851 368.456 202.302 369.123 201.518 369.162C201.557 369.162 201.518 369.162 201.479 369.162ZM200.224 349.573C199.479 349.573 198.891 348.984 198.852 348.238C198.774 346.55 198.734 345.019 198.734 343.605C198.734 341.643 198.813 339.915 198.93 338.266C198.97 337.52 199.636 336.932 200.42 337.01C201.165 337.049 201.753 337.717 201.675 338.502C201.557 340.072 201.479 341.721 201.479 343.605C201.479 344.979 201.518 346.471 201.557 348.159C201.596 348.905 201.008 349.573 200.224 349.573C200.263 349.573 200.224 349.573 200.224 349.573ZM202.419 330.258C202.223 330.258 202.027 330.218 201.871 330.14C201.165 329.826 200.891 329.001 201.204 328.334C202.302 325.9 203.831 323.976 205.712 322.602C206.496 322.014 207.516 321.464 208.692 320.954C209.397 320.639 210.181 320.993 210.495 321.66C210.809 322.367 210.456 323.152 209.789 323.466C208.809 323.898 207.986 324.33 207.32 324.801C205.791 325.939 204.576 327.47 203.674 329.473C203.439 329.944 202.929 330.258 202.419 330.258ZM218.688 320.954C218.022 320.954 217.473 320.482 217.356 319.815C217.238 319.069 217.708 318.362 218.453 318.205C221.315 317.695 224.647 317.224 228.293 316.831C229.038 316.753 229.704 317.303 229.783 318.048C229.861 318.794 229.312 319.462 228.567 319.54C225 319.894 221.746 320.365 218.963 320.875C218.845 320.954 218.767 320.954 218.688 320.954ZM238.211 318.873C237.506 318.873 236.878 318.323 236.839 317.577C236.8 316.831 237.388 316.164 238.133 316.125C242.837 315.85 246.601 315.771 248.012 315.771C248.012 315.771 248.012 315.771 248.051 315.771C248.796 315.771 249.423 316.36 249.423 317.106C249.423 317.852 248.835 318.48 248.09 318.52C246.718 318.559 242.994 318.598 238.329 318.873C238.25 318.873 238.211 318.873 238.211 318.873Z" fill="#827868"/>
<path d="M411.524 448.187C410.818 448.187 410.23 447.677 410.152 446.97C410.074 446.224 410.622 445.518 411.367 445.439C414.66 445.047 417.914 444.654 421.089 444.222C421.834 444.104 422.54 444.654 422.618 445.4C422.736 446.146 422.187 446.853 421.442 446.931C418.267 447.363 414.974 447.755 411.681 448.148C411.642 448.148 411.602 448.187 411.524 448.187ZM431.008 445.596C430.341 445.596 429.753 445.125 429.636 444.419C429.518 443.673 430.028 442.966 430.773 442.848C434.379 442.299 437.633 441.749 440.416 441.199C441.161 441.042 441.867 441.553 442.024 442.299C442.18 443.045 441.671 443.751 440.926 443.908C438.103 444.458 434.85 445.007 431.204 445.557C431.165 445.596 431.086 445.596 431.008 445.596ZM450.256 441.67C449.668 441.67 449.158 441.317 448.962 440.728C448.727 440.022 449.119 439.237 449.825 439.001C450.335 438.844 450.805 438.648 451.197 438.491C453.549 437.509 455.078 435.939 456.019 433.544C456.293 432.837 457.077 432.484 457.783 432.759C458.489 433.034 458.841 433.819 458.567 434.526C457.352 437.666 455.313 439.786 452.255 441.042C451.785 441.239 451.275 441.435 450.687 441.631C450.53 441.631 450.374 441.67 450.256 441.67ZM458.567 425.732C457.822 425.732 457.195 425.143 457.195 424.358C457.156 421.767 456.96 418.587 456.568 414.7C456.489 413.954 457.038 413.287 457.783 413.208C458.528 413.13 459.194 413.68 459.273 414.425C459.665 418.391 459.9 421.649 459.9 424.358C459.939 425.104 459.351 425.732 458.567 425.732ZM456.764 406.181C456.097 406.181 455.509 405.671 455.392 405.004C455 402.059 454.568 398.879 454.098 395.503L454.059 395.307C453.941 394.561 454.49 393.854 455.235 393.776C455.98 393.658 456.685 394.208 456.764 394.953L456.803 395.15C457.273 398.526 457.705 401.706 458.097 404.689C458.214 405.435 457.665 406.142 456.921 406.221C456.881 406.181 456.842 406.181 456.764 406.181Z" fill="#827868"/>
<path d="M239.58 475.236C235.856 475.197 232.523 475.001 229.622 474.648C228.877 474.569 228.329 473.862 228.446 473.116C228.525 472.371 229.23 471.821 229.975 471.939C232.759 472.292 235.973 472.488 239.58 472.528C240.325 472.528 240.952 473.156 240.952 473.902C240.952 474.608 240.325 475.236 239.58 475.236ZM249.341 474.922C248.636 474.922 248.008 474.373 247.969 473.627C247.93 472.881 248.518 472.214 249.263 472.174C251.419 472.057 253.732 471.86 256.162 471.664C256.907 471.585 257.574 472.174 257.652 472.92C257.73 473.666 257.142 474.333 256.398 474.412C253.967 474.648 251.615 474.805 249.42 474.922C249.42 474.922 249.38 474.922 249.341 474.922ZM220.371 472.214C220.175 472.214 219.979 472.174 219.822 472.096C216.215 470.486 213.667 468.209 212.02 465.108C211.668 464.44 211.903 463.616 212.569 463.263C213.236 462.909 214.059 463.145 214.412 463.812C215.784 466.325 217.901 468.209 220.919 469.583C221.625 469.897 221.939 470.722 221.625 471.389C221.39 471.899 220.88 472.214 220.371 472.214ZM210.805 456.393C210.1 456.393 209.511 455.843 209.433 455.136C209.237 452.859 209.159 450.465 209.08 447.913C209.041 447.049 209.041 446.146 209.002 445.243C208.963 444.497 209.551 443.83 210.335 443.83C211.08 443.791 211.746 444.38 211.746 445.165C211.785 446.068 211.785 446.971 211.824 447.834C211.903 450.347 211.981 452.702 212.138 454.901C212.216 455.647 211.628 456.314 210.884 456.393C210.884 456.393 210.844 456.393 210.805 456.393Z" fill="#827868"/>
<path d="M38.2383 281.734C62.9751 272.077 95.4739 262.733 104.334 260.299C113.193 257.826 118.29 254.764 122.798 265.953C127.267 277.141 133.775 296.063 136.323 301.677C138.871 307.291 141.145 312.081 126.718 317.106C112.292 322.131 80.8122 332.102 67.797 337.677C54.7818 343.252 50.3519 345.057 43.2954 328.569C36.239 312.081 33.142 302.894 30.5154 294.847C27.8497 286.72 32.9068 283.815 38.2383 281.734Z" fill="#F6B40C"/>
<path d="M103.358 295.385C107.949 294.289 110.783 289.673 109.689 285.075C108.595 280.478 103.986 277.639 99.3947 278.736C94.8038 279.832 91.9691 284.448 93.0634 289.045C94.1577 293.643 98.7665 296.481 103.358 295.385Z" fill="#FFFEF2"/>
<path d="M101.391 297.005C95.9417 297.005 91.4727 292.569 91.4727 287.073C91.4727 281.616 95.9025 277.141 101.391 277.141C106.879 277.141 111.309 281.577 111.309 287.073C111.309 292.569 106.84 297.005 101.391 297.005ZM101.391 279.889C97.4314 279.889 94.2168 283.108 94.2168 287.073C94.2168 291.038 97.4314 294.257 101.391 294.257C105.35 294.257 108.565 291.038 108.565 287.073C108.565 283.108 105.35 279.889 101.391 279.889Z" fill="#202D37"/>
<path d="M113.272 293.668C113.155 293.668 113.037 293.668 112.919 293.668C107.47 293.471 103.158 288.878 103.354 283.421C103.55 277.964 108.137 273.646 113.586 273.842C119.035 274.039 123.347 278.632 123.151 284.089C122.994 289.428 118.565 293.668 113.272 293.668ZM106.098 283.461C106.02 285.384 106.726 287.19 108.019 288.603C109.313 290.017 111.116 290.802 112.998 290.88C114.919 290.959 116.722 290.252 118.133 288.957C119.545 287.661 120.329 285.855 120.407 283.971C120.525 280.006 117.428 276.669 113.468 276.551C109.548 276.394 106.216 279.535 106.098 283.461Z" fill="#202D37"/>
<path d="M110.999 306.191C110.45 306.191 109.901 305.838 109.705 305.249C109.47 304.543 109.823 303.757 110.567 303.483C117.624 301.049 123.269 299.164 123.308 299.164C124.014 298.929 124.798 299.321 125.033 300.028C125.268 300.735 124.876 301.52 124.171 301.755C124.132 301.755 118.486 303.64 111.469 306.074C111.312 306.152 111.156 306.191 110.999 306.191Z" fill="#202D37"/>
<path d="M92.8454 312.631C92.2965 312.631 91.7869 312.317 91.5909 311.767C91.3165 311.06 91.6301 310.275 92.3357 309.961C94.2959 309.137 96.1384 308.391 97.7849 307.684C99.9802 306.781 102.45 305.8 105.077 304.74C105.782 304.465 106.566 304.818 106.841 305.525C107.115 306.232 106.762 307.017 106.057 307.292C103.43 308.312 100.999 309.333 98.8041 310.236C97.1576 310.903 95.3151 311.688 93.355 312.513C93.1982 312.591 93.0022 312.631 92.8454 312.631Z" fill="#202D37"/>
<path d="M74.2276 320.559C73.6788 320.559 73.2083 320.245 72.9731 319.735C72.6595 319.028 72.9731 318.243 73.6788 317.929C77.5206 316.241 81.8721 314.396 86.2628 312.551C86.9684 312.237 87.7524 312.59 88.0661 313.297C88.3797 314.003 88.0269 314.789 87.3212 315.103C82.9306 316.948 78.6183 318.832 74.7765 320.481C74.5804 320.52 74.3844 320.559 74.2276 320.559Z" fill="#202D37"/>
<path d="M58.9743 327.47C58.4646 327.47 57.9942 327.195 57.759 326.724C57.4062 326.057 57.6806 325.232 58.3862 324.879C60.66 323.74 64.5802 321.934 70.0293 319.54C70.735 319.226 71.519 319.54 71.8327 320.246C72.1463 320.953 71.8327 321.738 71.127 322.052C65.7171 324.408 61.8752 326.214 59.6015 327.313C59.3663 327.431 59.1703 327.47 58.9743 327.47Z" fill="#202D37"/>
</svg>
