<svg width="81" height="70" viewBox="0 0 81 70" fill="none" xmlns="http://www.w3.org/2000/svg">
<path d="M2.26076 16.3702C1.51591 16.3702 0.888675 15.7813 0.888675 15.0354C0.888675 14.9569 0.888685 14.7606 0.849482 14.5251C0.0262313 4.67133 0.96708 2.23733 2.65278 1.56995C4.84812 0.70627 12.6886 0.509961 14.2567 0.470703C14.2567 0.470703 14.2567 0.470703 14.2959 0.470703C15.0407 0.470703 15.668 1.05958 15.668 1.80549C15.668 2.55139 15.08 3.17951 14.3351 3.21876C11.0421 3.29728 5.43616 3.5721 3.82886 4.0432C3.59364 4.43578 2.9664 6.32016 3.63284 14.2503C3.67205 14.7214 3.67204 14.8391 3.67204 14.9569C3.63284 15.7421 3.00561 16.3702 2.26076 16.3702Z" fill="#F6B40C"/>
<path d="M78.6278 15.0354C78.5886 15.0354 78.5494 15.0354 78.5102 15.0354C77.7653 14.9569 77.1773 14.2895 77.2557 13.5436C77.4909 10.7956 77.7261 5.96683 77.3341 4.47503C76.55 3.80764 72.3946 3.21876 68.2783 3.21876C67.5335 3.21876 66.9062 2.59064 66.9062 1.84473C66.9062 1.09883 67.5335 0.470703 68.2783 0.470703C73.1786 0.470703 79.1374 1.02032 79.9214 3.5721C80.6271 5.84906 80.0782 12.4837 79.9606 13.7792C79.9214 14.5251 79.3334 15.0354 78.6278 15.0354Z" fill="#F6B40C"/>
<path d="M73.6082 68.8591C71.4912 68.8591 69.5311 68.5843 68.8647 68.4665C68.1198 68.3487 67.6102 67.6421 67.7278 66.8962C67.8454 66.1503 68.5511 65.6399 69.2959 65.7577C73.373 66.3858 77.1364 66.0717 77.5284 65.3651C77.7244 62.3422 77.5284 56.6891 77.5284 56.6105C77.4892 55.8646 78.0773 55.1973 78.8613 55.1973C79.6062 55.1973 80.2726 55.7469 80.2726 56.532C80.2726 56.7676 80.4686 62.3815 80.2726 65.5614C80.2334 66.3466 79.8413 67.0532 79.1749 67.6028C77.9596 68.5842 75.7251 68.8591 73.6082 68.8591Z" fill="#F6B40C"/>
<path d="M13.0789 69.6442C11.6676 69.6442 6.84573 69.5657 5.19923 68.6628C4.6112 68.3487 3.00391 67.485 3.00391 56.5713C3.00391 55.8254 3.63115 55.1973 4.37599 55.1973C5.12084 55.1973 5.74808 55.8254 5.74808 56.5713C5.74808 60.4971 6.10087 65.2081 6.6497 66.3073C7.59056 66.6606 10.6092 66.8569 13.0789 66.8569C13.8238 66.8569 14.451 67.485 14.451 68.2309C14.451 68.9768 13.863 69.6442 13.0789 69.6442Z" fill="#F6B40C"/>
<path d="M25.1566 34.4287C21.8244 34.4287 18.1786 34.3502 16.3361 34.0753C15.6696 33.9576 14.5328 33.8006 14.2583 32.7406C13.5527 30.1103 13.4743 21.0025 17.5122 15.8989C20.0995 12.6405 26.2935 11.8553 35.9765 13.5042C36.2117 13.5434 36.4077 13.5827 36.4861 13.5827C36.9958 13.6219 37.427 13.8967 37.6622 14.3678C37.819 14.6819 38.211 15.4278 38.1718 23.7898C38.1326 32.191 37.7406 32.7798 37.5446 33.0939C37.1134 33.7613 36.8389 34.2324 27.8224 34.3894C26.9991 34.4287 26.0975 34.4287 25.1566 34.4287ZM16.7673 31.3666C19.7467 31.8377 32.017 31.7984 35.1924 31.3273C35.4669 28.5792 35.506 19.0396 35.2708 16.213C24.1765 14.3286 20.7268 16.2915 19.6683 17.6263C16.5321 21.5521 16.3753 28.697 16.7673 31.3666ZM36.4077 13.6219H36.4469C36.4469 13.6219 36.4077 13.6219 36.4077 13.6219Z" fill="#827868"/>
<path d="M28.7204 28.8946H26.4074C25.0353 28.8946 23.8984 27.7561 23.8984 26.382V24.7332C23.8984 23.3592 25.0353 22.2207 26.4074 22.2207H28.7204C30.0924 22.2207 31.2293 23.3592 31.2293 24.7332V26.382C31.2293 27.7953 30.0924 28.8946 28.7204 28.8946Z" fill="#827868"/>
<path d="M28.7225 29.4825H26.4095C24.6846 29.4825 23.3125 28.1084 23.3125 26.3811V24.7323C23.3125 23.0049 24.6846 21.6309 26.4095 21.6309H28.7225C30.4474 21.6309 31.8195 23.0049 31.8195 24.7323V26.3811C31.8195 28.1084 30.4082 29.4825 28.7225 29.4825ZM26.4095 22.8478C25.351 22.8478 24.4886 23.7115 24.4886 24.7715V26.4203C24.4886 27.4803 25.351 28.344 26.4095 28.344H28.7225C29.7809 28.344 30.6434 27.4803 30.6434 26.4203V24.7715C30.6434 23.7115 29.7809 22.8478 28.7225 22.8478H26.4095Z" fill="#827868"/>
<path d="M28.7204 53.8614H26.4074C25.0353 53.8614 23.8984 52.7229 23.8984 51.3488V49.7C23.8984 48.326 25.0353 47.1875 26.4074 47.1875H28.7204C30.0924 47.1875 31.2293 48.326 31.2293 49.7V51.3488C31.2293 52.7229 30.0924 53.8614 28.7204 53.8614Z" fill="#827868"/>
<path d="M28.7225 54.4512H26.4095C24.6846 54.4512 23.3125 53.0772 23.3125 51.3498V49.701C23.3125 47.9736 24.6846 46.5996 26.4095 46.5996H28.7225C30.4474 46.5996 31.8195 47.9736 31.8195 49.701V51.3498C31.8195 53.0772 30.4082 54.4512 28.7225 54.4512ZM26.4095 47.7773C25.351 47.7773 24.4886 48.641 24.4886 49.701V51.3498C24.4886 52.4098 25.351 53.2735 26.4095 53.2735H28.7225C29.7809 53.2735 30.6434 52.4098 30.6434 51.3498V49.701C30.6434 48.641 29.7809 47.7773 28.7225 47.7773H26.4095Z" fill="#827868"/>
<path d="M55.2594 27.6758H52.9465C51.5744 27.6758 50.4375 26.5373 50.4375 25.1633V23.5145C50.4375 22.1404 51.5744 21.002 52.9465 21.002H55.2594C56.6315 21.002 57.7683 22.1404 57.7683 23.5145V25.1633C57.7683 26.5373 56.6315 27.6758 55.2594 27.6758Z" fill="#827868"/>
<path d="M55.2615 28.2657H52.9486C51.2237 28.2657 49.8516 26.8916 49.8516 25.1643V23.5154C49.8516 21.7881 51.2237 20.4141 52.9486 20.4141H55.2615C56.9864 20.4141 58.3585 21.7881 58.3585 23.5154V25.1643C58.3585 26.8524 56.9472 28.2657 55.2615 28.2657ZM52.9486 21.5918C51.8901 21.5918 51.0276 22.4555 51.0276 23.5154V25.1643C51.0276 26.2242 51.8901 27.0879 52.9486 27.0879H55.2615C56.3199 27.0879 57.1824 26.2242 57.1824 25.1643V23.5154C57.1824 22.4555 56.3199 21.5918 55.2615 21.5918H52.9486Z" fill="#827868"/>
<path d="M55.2594 53.8614H52.9465C51.5744 53.8614 50.4375 52.7229 50.4375 51.3488V49.7C50.4375 48.326 51.5744 47.1875 52.9465 47.1875H55.2594C56.6315 47.1875 57.7683 48.326 57.7683 49.7V51.3488C57.7683 52.7229 56.6315 53.8614 55.2594 53.8614Z" fill="#827868"/>
<path d="M55.2615 54.4512H52.9486C51.2237 54.4512 49.8516 53.0772 49.8516 51.3498V49.701C49.8516 47.9736 51.2237 46.5996 52.9486 46.5996H55.2615C56.9864 46.5996 58.3585 47.9736 58.3585 49.701V51.3498C58.3585 53.0772 56.9472 54.4512 55.2615 54.4512ZM52.9486 47.7773C51.8901 47.7773 51.0276 48.641 51.0276 49.701V51.3498C51.0276 52.4098 51.8901 53.2735 52.9486 53.2735H55.2615C56.3199 53.2735 57.1824 52.4098 57.1824 51.3498V49.701C57.1824 48.641 56.3199 47.7773 55.2615 47.7773H52.9486Z" fill="#827868"/>
<path d="M54.1267 34.939C50.7945 34.939 47.1487 34.782 45.4237 34.3894C43.8556 34.0361 43.542 33.1724 43.5813 32.5443C43.5813 32.2303 43.6204 31.2488 43.6204 29.9925C43.8557 13.936 44.2085 13.5827 44.8749 12.9938C46.2862 11.7376 55.3812 11.5805 60.6735 14.2108C64.0057 15.8596 65.4562 20.6099 66.1226 24.3394C66.7107 27.8333 66.8283 32.034 66.3579 33.1332C66.0442 33.8791 65.6914 34.6642 56.6749 34.8605C55.8516 34.8998 54.9892 34.939 54.1267 34.939ZM46.2862 31.7592C49.3048 32.348 60.9479 32.2695 63.8097 31.6414C64.0057 28.9718 63.3393 18.647 59.419 16.6841C55.3028 14.6427 48.7952 14.7212 46.8743 15.0745C46.5214 17.5085 46.3646 26.8126 46.3254 30.0318C46.3254 30.7384 46.3254 31.3273 46.2862 31.7592Z" fill="#827868"/>
<path d="M32.3681 65.8739C27.3502 65.8739 18.5688 64.8924 15.7462 58.3756C13.1981 52.4869 14.4918 42.6331 15.3542 41.3376C15.7462 40.7095 16.1775 40.0421 22.9987 39.8459C26.4485 39.7673 30.5256 39.8458 33.3481 40.0814C36.4451 40.3169 37.386 40.631 37.7388 41.5339C38.17 42.5154 38.0524 49.1108 37.974 52.958C37.6996 63.4399 37.1899 64.5391 36.9939 64.8924C36.7195 65.4813 36.2491 65.6776 36.0139 65.7169C35.9747 65.7169 34.5242 65.8739 32.3681 65.8739ZM17.6279 43.0257C17.1575 44.9494 16.2559 52.6832 18.2552 57.2764C20.8426 63.2436 31.5056 63.3614 34.6418 63.0866C35.1514 59.7889 35.465 46.3234 35.2298 43.0257C32.2896 42.5154 20.2153 42.3191 17.6279 43.0257Z" fill="#827868"/>
<path d="M45.1863 48.5619H45.1471C44.4023 48.5226 43.775 47.8945 43.8142 47.1486C43.8534 45.8531 43.8534 44.7539 43.8534 43.8117C43.8534 41.1814 43.8535 40.2 44.5591 39.4933C45.0687 38.983 45.1863 38.8652 58.476 39.1007C59.2208 39.1007 59.8481 39.7289 59.8089 40.514C59.8089 41.2599 59.1816 41.8488 58.4368 41.8488C58.4368 41.8488 58.4367 41.8488 58.3975 41.8488C53.7716 41.7703 48.5969 41.731 46.5976 41.7703C46.5584 42.3199 46.5584 43.0658 46.5584 43.8117C46.5584 44.7539 46.5584 45.8924 46.5192 47.2271C46.5192 47.973 45.9312 48.5619 45.1863 48.5619Z" fill="#827868"/>
<path d="M57.1437 64.4219C56.5948 64.4219 56.0852 64.1079 55.8892 63.5975C55.5756 62.8909 55.9284 62.1057 56.5948 61.7916C60.4367 60.1428 65.2194 58.1014 64.3961 39.9641C64.3569 39.2182 64.945 38.5509 65.6898 38.5116C66.4347 38.4724 67.1011 39.0613 67.1403 39.8072C68.0027 58.2977 63.1417 61.9486 57.6925 64.3041C57.4965 64.3826 57.3397 64.4219 57.1437 64.4219Z" fill="#827868"/>
<path d="M47.816 65.286C45.3854 65.286 44.3662 65.0504 43.935 64.1082C43.6606 63.5194 43.6214 62.5379 43.5822 57.7092C43.5822 56.6885 43.543 55.55 43.543 54.3723C43.543 53.6264 44.131 52.9982 44.8758 52.959C45.6207 52.959 46.2479 53.5478 46.2871 54.2937C46.2871 55.4715 46.3263 56.61 46.3263 57.6699C46.3655 59.5543 46.3655 61.4779 46.4439 62.4987C47.424 62.5772 49.2665 62.5379 50.1681 62.4987C50.6778 62.4987 51.109 62.4594 51.4226 62.4594C52.1675 62.4594 52.7947 63.0875 52.7947 63.8334C52.7947 64.5793 52.1675 65.2075 51.4226 65.2075C51.1482 65.2075 50.7562 65.2075 50.2466 65.2467C49.3057 65.286 48.4824 65.286 47.816 65.286Z" fill="#827868"/>
</svg>
