<svg width="139" height="100" viewBox="0 0 139 100" fill="none" xmlns="http://www.w3.org/2000/svg">
<path d="M17.343 74.3592C8.91446 74.3592 7.22874 71.8074 6.01347 67.0179C4.48457 60.9329 3.38691 53.3954 1.34838 34.7478C1.30918 34.2767 1.26998 33.8449 1.19157 33.4131L0.956357 31.4109C0.485928 27.0533 0.0939061 23.6378 0.0155012 20.8898C-0.219713 12.9204 2.17164 10.2116 10.6394 8.87681C34.7489 5.06878 67.2477 2.16368 79.518 1.06445C80.7333 0.94668 81.7526 0.868159 82.5366 0.789643C89.3578 0.161515 93.1213 2.51701 95.199 8.68052C96.1006 11.3501 96.6887 14.844 97.0807 19.4372L97.1199 19.8298C97.1983 20.5757 96.6103 21.2431 95.8654 21.3216C95.1206 21.4001 94.4542 20.8112 94.3757 20.0653L94.3365 19.6728C93.9837 15.3151 93.3957 12.0174 92.5724 9.58345C90.8867 4.63694 88.3386 3.06661 82.7326 3.5377C81.9486 3.61622 80.9685 3.69474 79.714 3.81251C67.4829 4.91174 35.0233 7.77757 11.0314 11.5856C3.89654 12.7241 2.52445 14.2551 2.72047 20.8112C2.79887 23.4415 3.19089 26.857 3.66132 31.1361L3.89654 33.1383C3.93574 33.5701 4.01414 34.0412 4.05335 34.473C6.05267 52.9636 7.15034 60.4226 8.64004 66.3505C9.85531 71.1007 10.5218 73.731 36.4346 69.4912C37.1794 69.3734 37.885 69.8838 38.0027 70.6297C38.1203 71.3756 37.6106 72.0822 36.8658 72.2C27.9668 73.6525 21.7337 74.3592 17.343 74.3592Z" fill="#827868"/>
<path d="M95.7078 19.5147C80.3796 21.5954 31.5334 28.1907 2.44519 32.3128C1.89636 27.4841 1.46512 23.7546 1.38672 20.8102C22.3992 18.4155 76.6946 11.349 93.9044 9.11133C94.7669 11.7024 95.3549 15.0785 95.7078 19.5147Z" fill="#827868"/>
<path d="M2.44729 32.9026C2.32968 32.9026 2.17286 32.8633 2.09446 32.7848C1.97685 32.7063 1.89845 32.5492 1.85925 32.3922L1.74164 31.3323C1.27121 27.0139 0.879186 23.5592 0.800781 20.8504C0.800781 20.5363 1.03599 20.3007 1.31041 20.2615C23.2246 17.749 82.2242 10.0544 93.789 8.56261C94.0634 8.52335 94.3378 8.68038 94.4162 8.95519C95.2786 11.5462 95.9059 15.0009 96.2587 19.5156C96.2979 19.8296 96.0627 20.1045 95.7491 20.1437L95.3962 20.183C79.5585 22.3422 31.3395 28.859 2.48648 32.9418C2.52568 32.9026 2.48649 32.9026 2.44729 32.9026ZM2.01606 21.3607C2.13367 23.9517 2.48649 27.1709 2.95691 31.2145L2.99612 31.6856C31.8099 27.642 79.1272 21.2037 95.0826 19.0445C94.7298 15.1579 94.2202 12.1351 93.4753 9.7796C80.9306 11.3892 24.0478 18.8089 2.01606 21.3607Z" fill="#827868"/>
<path d="M16.5994 48.9986C15.5017 48.9986 14.6001 48.9201 13.9336 48.8023C13.5024 48.7238 12.2087 48.4097 11.7775 47.2712C11.3855 46.172 10.7582 43.9735 10.3662 42.0106C9.66056 38.4774 9.93498 37.2997 10.5622 36.6323C12.4047 34.6694 23.5382 33.4131 27.5761 33.7665C29.2618 33.9235 30.1634 34.2768 30.6339 35.0227C31.8099 36.7893 33.7309 43.7772 31.4571 46.1327C29.9282 47.6245 21.5781 48.9986 16.5994 48.9986ZM14.2472 46.0542C16.4426 46.9179 27.9289 45.2691 29.497 44.1306C30.1634 43.3062 29.4578 38.4774 28.4385 36.6323C27.6937 36.3575 24.8711 36.2397 20.4412 36.7501C16.2074 37.2604 13.4632 38.0063 12.6791 38.3989C12.5615 39.5767 13.424 43.6202 14.2472 46.0542ZM11.5423 37.496L12.5223 38.4382L11.5423 37.496Z" fill="#827868"/>
<path d="M38.2383 39.7324C62.9751 30.0749 95.4739 20.7315 104.334 18.2975C113.193 15.8243 118.29 12.7621 122.798 23.9507C127.267 35.1392 133.775 54.0615 136.323 59.6754C138.871 65.2893 141.145 70.0788 126.718 75.1039C112.292 80.1289 80.8122 90.1004 67.797 95.6751C54.7818 101.25 50.3519 103.056 43.2954 86.5672C36.239 70.0788 33.142 60.8925 30.5154 52.8446C27.8497 44.7182 32.9068 41.8131 38.2383 39.7324Z" fill="#F6B40C"/>
<path d="M103.358 53.385C107.949 52.2887 110.783 47.6728 109.689 43.0752C108.595 38.4776 103.986 35.6392 99.3947 36.7356C94.8038 37.8319 91.9691 42.4478 93.0634 47.0454C94.1577 51.6431 98.7665 54.4814 103.358 53.385Z" fill="#FFFEF2"/>
<path d="M101.391 55.0052C95.9417 55.0052 91.4727 50.569 91.4727 45.0729C91.4727 39.6161 95.9025 35.1406 101.391 35.1406C106.879 35.1406 111.309 39.5768 111.309 45.0729C111.309 50.569 106.84 55.0052 101.391 55.0052ZM101.391 37.8887C97.4314 37.8887 94.2168 41.1079 94.2168 45.0729C94.2168 49.038 97.4314 52.2571 101.391 52.2571C105.35 52.2571 108.565 49.038 108.565 45.0729C108.565 41.1079 105.35 37.8887 101.391 37.8887Z" fill="#202D37"/>
<path d="M113.272 51.6677C113.155 51.6677 113.037 51.6677 112.919 51.6677C107.47 51.4714 103.158 46.8782 103.354 41.4213C103.55 35.9645 108.137 31.6461 113.586 31.8424C119.035 32.0387 123.347 36.6318 123.151 42.0887C122.995 47.4278 118.565 51.6677 113.272 51.6677ZM106.098 41.4606C106.02 43.3842 106.726 45.1901 108.019 46.6034C109.313 48.0167 111.116 48.8018 112.998 48.8803C114.919 48.9589 116.722 48.2522 118.133 46.9567C119.545 45.6612 120.329 43.8553 120.407 41.9709C120.525 38.0059 117.428 34.6689 113.468 34.5512C109.548 34.3941 106.216 37.5348 106.098 41.4606Z" fill="#202D37"/>
<path d="M110.999 64.1894C110.45 64.1894 109.901 63.8361 109.705 63.2472C109.47 62.5406 109.823 61.7554 110.567 61.4806C117.624 59.0466 123.269 57.1622 123.308 57.1622C124.014 56.9267 124.798 57.3193 125.033 58.0259C125.268 58.7326 124.876 59.5177 124.171 59.7532C124.132 59.7532 118.486 61.6376 111.469 64.0716C111.312 64.1501 111.156 64.1894 110.999 64.1894Z" fill="#202D37"/>
<path d="M92.8454 70.6287C92.2965 70.6287 91.7869 70.3146 91.5909 69.765C91.3165 69.0583 91.6301 68.2732 92.3357 67.9591C94.2959 67.1347 96.1384 66.3888 97.7849 65.6822C99.9802 64.7792 102.45 63.7978 105.077 62.7378C105.782 62.463 106.566 62.8163 106.841 63.523C107.115 64.2296 106.762 65.0148 106.057 65.2896C103.43 66.3103 100.999 67.331 98.8041 68.2339C97.1576 68.9013 95.3151 69.6865 93.355 70.5109C93.1982 70.5894 93.0022 70.6287 92.8454 70.6287Z" fill="#202D37"/>
<path d="M74.2276 78.5595C73.6788 78.5595 73.2083 78.2454 72.9731 77.7351C72.6595 77.0284 72.9731 76.2433 73.6788 75.9292C77.5206 74.2411 81.8721 72.396 86.2628 70.5509C86.9684 70.2368 87.7524 70.5901 88.0661 71.2968C88.3797 72.0034 88.0269 72.7886 87.3212 73.1026C82.9306 74.9478 78.6183 76.8322 74.7765 78.481C74.5804 78.5202 74.3844 78.5595 74.2276 78.5595Z" fill="#202D37"/>
<path d="M58.9743 85.4699C58.4646 85.4699 57.9942 85.195 57.759 84.7239C57.4062 84.0566 57.6806 83.2321 58.3862 82.8788C60.66 81.7403 64.5802 79.9344 70.0293 77.5397C70.735 77.2256 71.519 77.5397 71.8327 78.2464C72.1463 78.953 71.8327 79.7382 71.127 80.0522C65.7171 82.4077 61.8752 84.2136 59.6015 85.3128C59.3663 85.4306 59.1703 85.4699 58.9743 85.4699Z" fill="#202D37"/>
</svg>
